<svg width="24" height="24" viewBox="0 0 24 24" fill="none" xmlns="http://www.w3.org/2000/svg">
<path d="M23.0767 12C23.0767 5.8923 18.108 0.923096 11.9998 0.923096C5.8916 0.923096 0.922852 5.8923 0.922852 12C0.922852 15.1233 2.22735 17.9434 4.31391 19.959C4.36276 20.0226 4.42062 20.0742 4.48834 20.1176C6.46486 21.9479 9.09972 23.0769 11.9998 23.0769C14.8998 23.0769 17.5347 21.9479 19.5112 20.1176C19.5789 20.0742 19.6368 20.0226 19.6856 19.959C21.7722 17.9434 23.0767 15.1233 23.0767 12ZM11.9998 2.30771C17.3444 2.30771 21.6921 6.65582 21.6921 12C21.6921 14.2661 20.9044 16.3485 19.5965 18.0008C18.996 16.0643 17.2817 14.5484 14.9551 13.8508C16.223 12.9332 17.0524 11.4466 17.0524 9.7667C17.0524 6.98439 14.7861 4.72087 11.9998 4.72087C9.21342 4.72087 6.94719 6.98439 6.94719 9.7667C6.94719 11.4466 7.77652 12.9332 9.04445 13.8508C6.71783 14.5484 5.00357 16.0643 4.4031 18.0008C3.0951 16.3485 2.30747 14.2661 2.30747 12C2.30747 6.65582 6.65512 2.30771 11.9998 2.30771ZM8.33181 9.7667C8.33181 7.74792 9.97694 6.10549 11.9998 6.10549C14.0226 6.10549 15.6677 7.74792 15.6677 9.7667C15.6677 11.7855 14.0226 13.4279 11.9998 13.4279C9.97694 13.4279 8.33181 11.7855 8.33181 9.7667ZM5.56663 19.2295C5.77475 16.6911 8.46657 14.8125 11.9998 14.8125C15.533 14.8125 18.2248 16.6911 18.4329 19.2295C16.7196 20.7559 14.4697 21.6923 11.9998 21.6923C9.52988 21.6923 7.27999 20.7559 5.56663 19.2295Z" fill="#2B241E"/>
</svg>
