<svg width="58" height="38" viewBox="0 0 58 38" fill="none" xmlns="http://www.w3.org/2000/svg">
<g clip-path="url(#clip0)">
<path fill-rule="evenodd" clip-rule="evenodd" d="M33.4353 31.401C33.9225 31.7387 35.3844 32.752 36.7492 30.8225C37.1092 30.3136 36.985 30.062 36.9443 29.52C36.8998 28.927 36.4854 28.1155 35.8237 28.0243C34.6794 27.8666 34.092 27.3925 33.3382 28.4582C32.5844 29.5238 32.948 31.0632 33.4353 31.401Z" fill="black"/>
<path fill-rule="evenodd" clip-rule="evenodd" d="M57.1516 32.9229C57.2753 32.3469 57.6464 30.6189 55.3189 30.1291C54.705 30 54.5195 30.2115 54.0315 30.4603C53.4974 30.7325 52.9048 31.4273 53.0785 32.0658C53.379 33.1702 53.1677 33.8907 54.4531 34.1612C55.7385 34.4316 57.028 33.4989 57.1516 32.9229Z" fill="black"/>
<path fill-rule="evenodd" clip-rule="evenodd" d="M46.6356 35.1657C46.7593 34.5897 46.7839 33.9928 45.1374 33.6464C44.5235 33.5172 44.338 33.7287 43.8499 33.9775C43.3159 34.2498 42.5276 35.0199 42.897 35.5831C43.3552 36.2815 43.1098 36.8319 44.3953 37.1024C45.6807 37.3729 46.5119 35.7417 46.6356 35.1657Z" fill="black"/>
<path fill-rule="evenodd" clip-rule="evenodd" d="M49.238 29.3081C49.5031 28.0738 49.0095 27.54 47.8985 27.3062C47.4843 27.219 47.3571 27.3712 47.0249 27.5524C46.6614 27.7506 46.0997 28.6478 46.212 29.1014C46.4063 29.8859 46.9543 30.1177 47.2801 30.1862C47.6059 30.2548 48.973 30.5424 49.238 29.3081Z" fill="black"/>
<path fill-rule="evenodd" clip-rule="evenodd" d="M17.9384 19.7017C18.5008 19.51 20.1882 18.9348 19.4135 16.7077C19.2092 16.1203 18.9305 16.0718 18.4637 15.7858C17.953 15.4729 17.0461 15.3278 16.5827 15.8042C15.7812 16.6279 15.0485 16.8197 15.4763 18.0497C15.9041 19.2797 17.3759 19.8934 17.9384 19.7017Z" fill="black"/>
<path fill-rule="evenodd" clip-rule="evenodd" d="M33.1222 1.60248C32.7241 1.16486 31.53 -0.147992 29.7617 1.42814C29.2953 1.84382 29.3591 2.11668 29.2756 2.65382C29.1842 3.24149 29.4036 4.1245 30.0276 4.3607C31.1067 4.76918 31.5714 5.36193 32.548 4.49146C33.5246 3.62099 33.5202 2.04009 33.1222 1.60248Z" fill="black"/>
<path fill-rule="evenodd" clip-rule="evenodd" d="M28.7733 11.343C28.3753 10.9054 27.9019 10.5349 26.651 11.6498C26.1846 12.0655 26.2484 12.3384 26.1649 12.8755C26.0735 13.4632 26.2395 14.5473 26.917 14.5824C27.7571 14.626 28.0627 15.146 29.0393 14.2755C30.0159 13.4051 29.1713 11.7806 28.7733 11.343Z" fill="black"/>
<path fill-rule="evenodd" clip-rule="evenodd" d="M25.5164 5.81533C24.6634 4.87758 23.937 4.95903 23.0929 5.71141C22.7782 5.9919 22.8278 6.18322 22.7806 6.55576C22.729 6.96336 23.132 7.94059 23.5688 8.11726C24.3241 8.42279 24.8356 8.12009 25.0831 7.89949C25.3306 7.67889 26.3693 6.75309 25.5164 5.81533Z" fill="black"/>
<path fill-rule="evenodd" clip-rule="evenodd" d="M49.1446 9.72972C48.5498 9.71944 46.7655 9.68861 46.724 12.0437C46.713 12.6649 46.9581 12.8048 47.298 13.2316C47.6698 13.6985 48.4718 14.1419 49.0719 13.8512C50.1097 13.3485 50.8645 13.4164 50.8874 12.1157C50.9103 10.815 49.7394 9.74 49.1446 9.72972Z" fill="black"/>
<path fill-rule="evenodd" clip-rule="evenodd" d="M28.6229 21.5965C28.8457 22.1425 29.5143 23.7805 31.7205 22.8981C32.3023 22.6654 32.3367 22.3874 32.6007 21.9109C32.8897 21.3897 32.9885 20.4856 32.4838 20.0524C31.6109 19.3032 31.379 18.5889 30.1606 19.0762C28.9421 19.5635 28.4001 21.0505 28.6229 21.5965Z" fill="black"/>
<path fill-rule="evenodd" clip-rule="evenodd" d="M36.0741 13.9156C36.297 14.4616 36.6137 14.97 38.1745 14.3458C38.7563 14.1131 38.7906 13.8351 39.0547 13.3586C39.3436 12.8374 39.5622 11.7625 38.9377 11.5001C38.1633 11.1747 38.0559 10.5825 36.8374 11.0699C35.619 11.5572 35.8513 13.3696 36.0741 13.9156Z" fill="black"/>
<path fill-rule="evenodd" clip-rule="evenodd" d="M37.4233 20.1719C37.9008 21.3419 38.6116 21.5113 39.6647 21.0901C40.0573 20.9331 40.0768 20.7365 40.2499 20.4024C40.4392 20.0369 40.3982 18.9821 40.0488 18.6682C39.4445 18.1254 38.8593 18.2367 38.5505 18.3602C38.2417 18.4837 36.9458 19.002 37.4233 20.1719Z" fill="black"/>
<path fill-rule="evenodd" clip-rule="evenodd" d="M11.4904 8.13876C10.2391 7.89798 9.70855 8.39578 9.49181 9.49952C9.41101 9.91101 9.56693 10.0343 9.75573 10.3599C9.96229 10.7162 10.8782 11.2565 11.3345 11.1374C12.1235 10.9314 12.348 10.385 12.4115 10.0613C12.4751 9.73771 12.7417 8.37954 11.4904 8.13876Z" fill="black"/>
<path fill-rule="evenodd" clip-rule="evenodd" d="M1.13276 5.43141C0.383502 6.45228 0.615008 7.1387 1.53393 7.79961C1.87652 8.046 2.05525 7.95821 2.43317 7.92644C2.84666 7.89169 3.72848 7.29829 3.81224 6.83862C3.95709 6.04369 3.55164 5.61136 3.28221 5.41757C3.01277 5.22379 1.88202 4.41053 1.13276 5.43141Z" fill="black"/>
</g>
<defs>
<clipPath id="clip0">
<rect width="57.1074" height="37.0989" fill="white" transform="translate(0.460938 0.585327)"/>
</clipPath>
</defs>
</svg>
