<svg width="56" height="52" viewBox="0 0 56 52" fill="none" xmlns="http://www.w3.org/2000/svg">
<path fill-rule="evenodd" clip-rule="evenodd" d="M1.23079 24.4909C1.12155 24.5525 0.977792 24.5553 0.85001 24.5853L0.937492 24.2744C1.10612 23.6771 1.2726 23.0794 1.44614 22.4835C1.46611 22.4148 1.52577 22.3571 1.5706 22.2888C2.11432 23.0245 1.94895 24.0861 1.23079 24.4909ZM1.15439 32.9373C1.06238 32.1797 0.983558 31.5314 0.902229 30.862C1.69851 31.1452 1.76823 31.6568 1.15439 32.9373ZM4.88607 27.3933C4.89279 28.1706 4.06021 28.9949 3.26667 28.9965C2.74205 28.9975 2.16068 28.3394 2.14985 27.7321C2.13928 27.1378 3.13227 26.2928 3.82704 26.3048C4.49202 26.3163 4.88 26.7152 4.88607 27.3933ZM5.4849 18.7164C5.39794 19.349 4.51576 20.3678 4.08367 20.3347C3.39179 20.2817 2.30966 19.2962 2.35631 18.7615C2.41834 18.0504 3.1367 17.4323 3.83072 17.493C4.71634 17.5704 5.55719 18.1921 5.4849 18.7164ZM4.08567 37.9032C3.48748 38.2168 3.14484 38.0522 2.89804 37.4038C2.7984 37.1421 2.55224 36.9376 2.41458 36.6852C2.26344 36.4076 1.97574 35.9644 2.07335 35.8407C2.31983 35.5281 2.74467 35.347 3.10934 35.1317C3.18159 35.089 3.30428 35.1287 3.40375 35.1302C4.1075 35.1503 4.53088 35.4774 4.68537 36.1203C4.83765 36.7528 4.52873 37.671 4.08567 37.9032ZM8.20554 22.9574C8.13449 23.9045 7.40634 24.7558 6.68566 24.7344C6.0063 24.7141 5.15961 23.6109 5.21752 22.8212C5.26384 22.1899 6.09614 21.5358 6.80609 21.5728C7.72227 21.6207 8.26554 22.1581 8.20554 22.9574ZM8.27158 32.4866C8.18072 32.663 8.12903 32.8804 7.99099 33.0074C7.68768 33.2862 7.35941 33.6987 7.00756 33.7342C6.25692 33.8099 5.05209 32.6429 5.055 31.9999C5.05706 31.5469 5.83864 30.8467 6.31754 30.8689C7.60396 30.9282 8.2168 31.4458 8.27158 32.4866ZM7.65278 40.8498C7.63597 41.6383 6.78244 42.4456 5.99959 42.4135C5.48305 42.3924 4.90021 41.6952 4.9113 41.1121C4.92222 40.5392 5.99169 39.6636 6.63361 39.7018C7.25523 39.7391 7.66669 40.2026 7.65278 40.8498ZM8.57767 15.1047C8.52071 16.2933 8.16627 16.6901 7.06333 16.5838C6.01328 16.4826 5.51201 16.1101 5.5815 15.4127C5.60762 14.4717 6.31588 13.6574 7.09299 13.6745C7.81196 13.6905 8.60864 14.4578 8.57767 15.1047ZM11.7014 18.8766C11.3762 19.3387 11.0466 19.8009 10.6732 20.2249C10.5586 20.3551 10.2883 20.4487 10.1154 20.418C9.31116 20.2742 8.73007 19.8093 8.41423 19.0703C8.3607 18.9451 8.48017 18.7404 8.5388 18.5792C8.77114 17.9398 9.34991 17.5427 10.0225 17.6008C10.7371 17.5562 11.2986 17.886 11.6483 18.5609C11.6966 18.6543 11.7467 18.8124 11.7014 18.8766ZM11.6055 27.3225C11.5784 28.1204 10.7046 29.1717 9.93375 29.3341C9.57482 29.4096 8.70094 29.044 8.51392 28.7097C8.26902 28.272 8.3492 27.8985 8.66184 27.4731C9.03088 26.9711 9.39515 26.5146 9.99823 26.2841C10.754 25.9954 11.6315 26.5595 11.6055 27.3225ZM10.9448 37.7489C10.7017 38.0578 10.3665 38.4109 9.81513 38.2487C9.36748 38.1171 8.77426 38.28 8.66334 37.5921C8.58824 37.1265 8.38793 36.681 8.65848 36.191C8.90344 35.7474 8.90375 35.0953 9.73638 35.2736C10.4624 35.135 10.7539 35.6642 11.0342 36.1963C11.3146 36.7281 11.2988 37.2988 10.9448 37.7489ZM11.8976 10.6565C11.8893 11.3997 11.1552 12.3421 10.5934 12.3308C9.77241 12.3141 9.1213 11.5033 9.14291 10.5244C9.15917 9.79397 9.72722 9.41182 10.7967 9.41222C11.3587 9.41241 11.9046 10.0293 11.8976 10.6565ZM11.2983 45.9361C11.186 46.1143 11.0894 46.425 10.9579 46.4398C10.7636 46.462 10.5226 46.3026 10.3403 46.1695C9.85104 45.8125 9.378 45.4336 8.90862 45.0516C8.78046 44.9473 8.68766 44.8011 8.57878 44.674C8.73206 44.5546 8.86723 44.386 9.04172 44.3239C9.79638 44.0562 10.9397 44.6104 11.2041 45.3679C11.2558 45.5159 11.206 45.6978 11.2031 45.8641L11.2983 45.9361ZM14.249 24.2215C14.0063 24.4509 13.6816 24.8104 13.4366 24.7802C12.8731 24.711 12.2679 24.5538 11.9521 23.9714C11.8963 23.8685 11.823 23.7748 11.7605 23.6753C11.5763 23.382 11.2693 23.0819 11.5763 22.731C11.9101 22.3495 12.1617 21.801 12.8856 21.8214C13.3117 22.0029 13.788 22.1175 14.153 22.3804C14.8113 22.8544 14.8317 23.6712 14.249 24.2215ZM14.2843 32.2591C14.2772 33.2151 13.6155 33.9111 12.7225 33.9016C12.0365 33.8942 11.2892 33.169 11.2879 32.5097C11.2866 31.7038 12.0952 30.7228 12.7455 30.7417C13.6659 30.7683 14.2907 31.3845 14.2843 32.2591ZM14.3641 41.0335C14.3464 41.9527 13.4913 42.7526 12.5586 42.7222C11.9936 42.7038 11.3613 41.9817 11.3649 41.3585C11.3691 40.5611 12.2406 39.7886 13.1009 39.8198C13.7835 39.8444 14.3758 40.4135 14.3641 41.0335ZM15.1851 6.54229C15.0386 7.05718 14.8554 7.57756 14.5825 8.035C14.4664 8.22983 14.0823 8.27123 13.8201 8.38224C12.9678 8.28314 12.2746 7.83167 12.0702 7.18502C11.847 6.47948 12.1371 5.57908 12.7334 5.12658C13.0963 4.85112 13.8906 4.8626 14.3832 5.15035C14.9096 5.45789 15.3141 6.08863 15.1851 6.54229ZM14.8254 15.2549C14.8091 16.0451 14.1563 16.7147 13.4076 16.7097C12.7213 16.7049 12.2837 16.2818 12.2927 15.6313C12.3054 14.7093 12.8899 14.0308 13.6755 14.0259C14.3187 14.022 14.8394 14.5784 14.8254 15.2549ZM17.216 36.4135C17.2134 37.5039 16.8586 38.0316 16.0736 38.2176C15.4149 38.3736 14.4811 37.6924 14.4449 37.0297C14.389 35.9998 15.5395 35.108 16.5522 35.3893C17.1546 35.5566 17.295 35.9727 17.216 36.4135ZM18.3008 1.83607C18.2738 2.61711 17.4745 3.60391 16.6896 3.82525C16.3448 3.92235 15.4697 3.59481 15.2503 3.25434C14.963 2.80864 15.0585 2.43054 15.3602 1.97229C15.7278 1.41358 16.1771 1.07218 16.7932 0.839591C17.542 0.556827 18.3279 1.04807 18.3008 1.83607ZM17.5276 45.3231C17.5106 46.1405 16.6549 47.1759 15.8686 47.3301C15.476 47.407 14.6428 47.0665 14.4444 46.7192C14.179 46.2545 14.3165 45.8822 14.6248 45.4378C15.0006 44.8961 15.4125 44.4681 16.0385 44.2567C16.7465 44.0178 17.5429 44.5949 17.5276 45.3231ZM17.0848 29.1332C16.7128 29.6304 16.2933 29.292 15.8635 29.1532C15.1917 28.9366 14.9796 28.3551 14.6842 27.8465C14.4979 27.526 15.1463 26.6394 15.6058 26.5249C16.2973 26.3527 17.2019 26.6606 17.5736 27.2378C17.7184 27.4627 17.7706 27.745 17.865 28.0012C17.9711 28.6609 17.3394 28.7927 17.0848 29.1332ZM17.9873 18.907C17.9342 19.5069 16.9673 20.5946 16.5319 20.5444C15.8391 20.4643 14.8035 19.4885 14.8637 18.9725C14.9411 18.31 15.7201 17.6542 16.3652 17.7086C17.1955 17.7788 18.0324 18.3971 17.9873 18.907ZM17.9013 11.0349C17.7968 12.2229 17.6053 12.5018 16.5936 12.6328C16.3577 12.6634 16.0412 12.6219 15.8663 12.4851C15.3189 12.057 15.0941 11.4314 15.1695 10.7722C15.2387 10.1658 15.701 9.75747 16.2655 9.56749C17.1474 9.27039 17.9171 9.98717 17.9013 11.0349ZM20.6054 41.6559C20.281 42.2043 19.2065 42.7082 18.5788 42.6066C17.8557 42.4894 17.6043 42.1974 17.6027 41.362C17.6254 41.2802 17.6521 41.0836 17.7322 40.9107C18.0515 40.2207 19.3361 39.7347 20.0447 40.0232C20.8428 40.3481 21.0399 40.9218 20.6054 41.6559ZM19.263 24.9476C18.6176 24.9517 17.9196 24.1657 17.9247 23.4554C17.9297 22.7398 18.6651 22.017 19.3873 22.0181C20.2845 22.0192 20.6812 22.4849 20.6808 23.536C20.7262 24.3568 20.189 24.9418 19.263 24.9476ZM20.5229 32.3801C20.4916 33.1925 19.8042 34.0235 19.1865 33.9956C18.3858 33.9598 17.7499 33.1601 17.7692 32.2137C17.7842 31.4867 18.4626 31.0407 19.4837 31.0867C20.0447 31.112 20.5478 31.738 20.5229 32.3801ZM19.8206 8.40318C19.168 8.40886 18.4671 7.66332 18.454 6.94653C18.4411 6.23787 19.1718 5.48325 19.8805 5.47346C20.7668 5.46118 21.2072 5.95523 21.2091 6.964C21.2889 7.73237 20.7484 8.39514 19.8206 8.40318ZM19.4734 16.738C18.8299 16.741 18.3332 16.0662 18.3235 15.1762C18.3169 14.5592 19.0541 13.8923 19.748 13.8875C20.72 13.881 21.2948 14.4159 21.2995 15.3313C21.3043 16.273 20.708 16.7323 19.4734 16.738ZM20.4173 50.4926C20.1596 50.453 19.9 50.4217 19.6441 50.3719C19.1199 50.2699 18.5962 50.1648 18.0755 50.0477C17.7671 49.9784 17.6665 49.8169 17.9262 49.5716C18.2726 49.2446 18.624 48.9193 19.172 49.0175C19.2014 48.9733 19.2307 48.929 19.2601 48.8847C19.5788 49.1057 19.9685 49.2738 20.1933 49.5647C20.3725 49.7963 20.3502 50.1777 20.4173 50.4926ZM23.8387 37.2418C23.7407 37.671 23.1483 38.2172 22.7048 38.2955C21.9213 38.4336 20.6629 37.191 20.7068 36.542C20.7406 36.0426 21.5935 35.4309 22.2045 35.468C23.3807 35.5392 24.0778 36.1943 23.8387 37.2418ZM24.227 19.0147C24.164 19.5918 23.2839 20.6679 22.8805 20.6611C22.1798 20.6493 21.0617 19.6367 21.1119 19.0592C21.1631 18.4707 21.8695 17.7572 22.3757 17.7829C23.3798 17.8338 24.2897 18.4392 24.227 19.0147ZM24.3738 10.8626C24.2513 11.9824 23.6032 12.4474 22.5717 12.5268C22.0749 12.5651 21.3925 11.7326 21.3842 11.1603C21.3733 10.4119 22.2455 9.60907 23.0547 9.62234C23.8523 9.6354 24.4503 10.1634 24.3738 10.8626ZM23.7644 45.6199C23.729 46.6031 22.9875 47.4914 22.2426 47.4431C21.5944 47.4011 20.7591 46.3351 20.7767 45.5724C20.7911 44.9469 21.6761 44.2393 22.3909 44.2821C23.3308 44.3381 23.7943 44.7896 23.7644 45.6199ZM24.5379 2.12534C24.501 3.09738 23.7378 4.00395 23.0056 3.94533C22.3583 3.89359 21.5321 2.82133 21.5515 2.05854C21.568 1.41533 22.4224 0.748035 23.1752 0.790505C24.1187 0.843666 24.5698 1.28557 24.5379 2.12534ZM22.9306 29.6879C22.8236 29.7275 22.7084 29.7453 22.5969 29.7732C21.769 29.7977 21.5713 29.0749 21.1604 28.6264C21.1079 28.569 21.1518 28.4073 21.18 28.3014C21.4117 27.4349 22.0236 26.9292 22.8582 26.6632C23.2142 26.5498 23.9669 27.2061 24.0653 27.6805C24.2246 28.449 23.6839 29.4093 22.9306 29.6879ZM26.1809 24.7687C25.7751 25.2881 25.412 24.8967 24.9948 24.7294C24.5779 24.5621 24.3072 24.3113 24.0997 23.9474C23.9128 23.6199 23.5486 23.3374 23.8486 22.8987C24.3041 22.2321 24.6636 22.0551 25.3668 22.228C25.7237 22.3157 26.0902 22.4366 26.3981 22.6269C26.7938 22.8714 26.8971 23.1916 26.8769 23.7159C27.0617 24.2908 26.4474 24.4273 26.1809 24.7687ZM25.8808 51.3556C25.1598 51.2343 24.4247 51.1652 23.7241 50.9734C23.5209 50.9179 23.2899 50.5171 23.2925 50.2769C23.2975 49.8296 24.0989 49.2718 24.558 49.3525C24.9796 49.4265 25.4175 49.5253 25.7908 49.7195C26.2213 49.9432 26.5313 50.312 26.39 50.8815C26.5095 51.3156 26.2891 51.4242 25.8808 51.3556ZM26.6714 16.2875C25.9151 17.0393 25.0593 16.9612 24.4455 16.0829C24.3331 15.9222 24.1872 15.7712 24.125 15.593C24.0358 15.3371 23.8735 14.9709 23.9834 14.8105C24.2438 14.4301 24.5108 13.9574 25.354 13.9837C25.6146 14.0861 26.1318 14.2012 26.5437 14.4712C27.2143 14.9108 27.2347 15.7276 26.6714 16.2875ZM26.6815 41.1072C26.5365 42.118 25.5938 42.5864 24.6933 42.194C24.2105 41.9836 23.9604 41.6472 23.7032 41.266C23.2962 40.6624 23.7217 39.6497 24.4591 39.6082C25.1318 39.5705 25.829 39.6925 26.2904 40.2605C26.4812 40.4955 26.5546 40.8223 26.6815 41.1072ZM26.8506 32.6833C26.8051 32.7077 26.7596 32.7324 26.7141 32.7571C26.8711 33.3621 26.2852 33.5146 26.0109 33.8501C25.5939 34.3596 25.2325 33.9395 24.8173 33.7864C24.3213 33.6033 24.0848 33.2348 23.8299 32.8464C23.4459 32.2614 23.995 31.1417 24.7039 31.2037C25.2502 31.2515 25.8194 31.4729 26.2904 31.7574C26.5663 31.924 26.6696 32.3654 26.8506 32.6833ZM27.2883 7.12459C27.1434 8.1233 26.1598 8.61831 25.2985 8.19649C24.8425 7.97324 24.5536 7.66458 24.3 7.26683C23.9145 6.66187 24.4004 5.59251 25.1304 5.59028C25.7603 5.58845 26.4258 5.70073 26.8571 6.23446C27.0599 6.48532 27.1482 6.82508 27.2883 7.12459ZM29.335 45.7986C29.2921 47.0178 28.9885 47.3274 27.851 47.3114C26.9384 47.2986 26.3133 46.8302 26.3279 46.1704C26.3481 45.26 27.0658 44.4008 27.8184 44.3861C28.4981 44.3727 29.3569 45.1727 29.335 45.7986ZM29.8122 28.4679C29.7932 28.8086 28.9487 29.601 28.619 29.5875C27.8304 29.5557 26.6463 28.4747 26.6769 27.8145C26.7026 27.2619 27.4653 26.7063 28.1495 26.7417C29.3163 26.8022 29.8731 27.3802 29.8122 28.4679ZM28.8331 3.82252C27.9603 3.80381 27.3038 3.29156 27.3268 2.64704C27.3595 1.72714 28.0891 0.884937 28.8446 0.894682C29.5203 0.903548 30.3393 1.65205 30.3409 2.26234C30.3445 3.4214 29.934 3.84609 28.8331 3.82252ZM29.7297 36.9665C29.7214 37.6835 29.0681 38.4695 28.4773 38.4735C27.6863 38.479 26.7146 37.7171 26.72 37.0958C26.7269 36.3309 27.6158 35.5261 28.4203 35.5564C29.083 35.5814 29.7376 36.2866 29.7297 36.9665ZM30.2376 19.1114C30.1824 19.7134 29.267 20.7925 28.8402 20.7582C28.1748 20.7048 27.0891 19.7414 27.1124 19.2248C27.1401 18.6055 27.9282 17.8631 28.5086 17.9093C29.473 17.9862 30.2886 18.5533 30.2376 19.1114ZM29.4631 12.4962C29.2945 12.7022 28.9997 12.809 28.8859 12.8818C28.2121 12.8799 27.6502 12.4023 27.4847 11.8405C27.2968 11.2028 27.6086 10.3561 28.1699 9.9797C28.9376 9.46508 29.7244 9.83106 29.8998 10.7483C30.0264 11.4103 29.8751 11.9929 29.4631 12.4962ZM32.2628 50.7932C32.0123 51.2591 31.6984 51.3905 31.2248 51.36C31.0663 51.3499 30.8925 51.3259 30.7492 51.3747C30.1314 51.5847 29.8768 51.1834 29.6373 50.7621C29.3865 50.3206 29.48 49.8895 29.8644 49.6061C30.2748 49.3036 30.7605 49.0993 31.2132 48.8521L31.2924 48.9916C32.3739 49.0388 32.7723 49.8449 32.2628 50.7932ZM33.1234 23.7827C33.1028 24.2612 32.3652 25.1449 31.9891 25.1414C31.2334 25.1343 29.9728 23.9964 29.9963 23.3428C30.0146 22.8384 30.7758 22.2069 31.3298 22.2366C32.5384 22.3012 33.1635 22.8401 33.1234 23.7827ZM32.455 42.4428C31.7083 43.2211 30.7845 43.1367 30.1835 42.2348C30.0856 42.0878 29.9466 41.9506 29.9031 41.7891C29.8281 41.5097 29.6777 41.1255 29.8013 40.9453C30.049 40.5843 30.3057 40.1212 30.9158 40.051C31.3726 40.2087 31.8793 40.2908 32.2756 40.5407C33.0021 40.999 33.0442 41.8286 32.455 42.4428ZM32.8254 32.5953C32.8036 33.3757 32.3646 33.9994 31.7227 34.1629C31.2457 34.2842 30.582 34.0048 30.2305 33.5247C29.9254 33.108 30.0054 32.6805 30.2218 32.2596C30.4755 31.7665 30.8522 31.4377 31.4311 31.3324C32.3828 31.1592 32.8541 31.5743 32.8254 32.5953ZM33.3647 7.04748C33.0726 7.59511 32.9377 8.38232 31.9718 8.38134C31.5385 8.36885 30.6758 7.58 30.5374 7.00803C30.4221 6.53109 30.7721 5.9986 31.4099 5.68023C32.0726 5.34955 32.8922 5.44715 33.2854 5.90374C33.2984 5.91869 33.319 5.93425 33.3202 5.95065C33.3466 6.32141 33.5147 6.76613 33.3647 7.04748ZM33.3558 15.8103C33.342 16.5962 32.9027 17.2315 32.2581 17.3977C31.3558 17.6303 30.3741 16.6898 30.6298 15.8126C30.7747 15.3153 31.0595 14.8989 31.5769 14.6781C32.6184 14.2338 33.375 14.7125 33.3558 15.8103ZM35.3136 3.91342C34.5037 3.88211 33.6044 3.16593 33.6039 2.55189C33.6034 1.88046 34.4252 0.992923 35.048 0.99239C35.8536 0.991803 36.5758 1.63199 36.5997 2.36818C36.6232 3.08692 35.9159 3.93669 35.3136 3.91342ZM35.8201 46.1737C35.7876 46.9075 35.115 47.6736 34.5301 47.6431C33.7012 47.5999 32.8277 46.9051 32.8258 46.2876C32.8236 45.5425 33.6793 44.7046 34.43 44.7169C35.1589 44.7287 35.8519 45.4551 35.8201 46.1737ZM34.6921 38.5023C33.873 38.7326 32.9186 37.9655 32.9938 37.1374C33.0546 36.4675 33.618 35.8412 34.2899 35.6963C35.2235 35.4951 35.7518 35.9065 35.7565 36.8385C35.7607 37.6956 35.3658 38.3129 34.6921 38.5023ZM36.5062 19.2388C36.4392 19.8561 35.5493 20.8958 35.1131 20.8663C34.4287 20.8201 33.3222 19.827 33.365 19.2974C33.4231 18.5784 34.1667 17.9632 34.8991 18.0281C35.7403 18.1026 36.5622 18.722 36.5062 19.2388ZM36.6704 11.4663C36.6745 12.1721 36.019 12.9653 35.4223 12.9766C34.6269 12.9917 33.6675 12.24 33.6746 11.6072C33.6827 10.8837 34.5168 10.055 35.2359 10.0561C35.9894 10.0572 36.6663 10.7226 36.6704 11.4663ZM36.1414 27.9604C36.1331 28.7326 35.2638 29.5587 34.4877 29.5316C33.9759 29.5139 33.431 28.8874 33.4126 28.2959C33.3938 27.6879 34.3502 26.8386 35.0524 26.8398C35.73 26.8409 36.1486 27.2715 36.1414 27.9604ZM39.5452 7.58225C39.4405 7.72023 39.3362 7.86093 39.254 8.01215C38.7832 8.87776 37.7247 8.97467 37.1356 8.17718C36.9366 7.90789 36.838 7.56713 36.6861 7.24337C36.8007 6.96566 36.8592 6.71598 36.9945 6.51605C37.4918 5.78007 38.5706 5.45015 39.2 5.81662C39.7889 6.15941 39.9587 7.03729 39.5452 7.58225ZM37.4566 43.1654C36.7831 43.179 36.1348 42.409 36.1464 41.6653C36.1579 40.9245 36.8682 40.2236 37.599 40.2319C38.4776 40.2419 38.9016 40.7391 38.9033 41.7619C38.9065 42.6405 38.3413 43.1475 37.4566 43.1654ZM37.9414 25.2695C37.0054 25.2428 36.441 24.7983 36.4596 24.1026C36.4843 23.1768 37.2135 22.3264 37.9667 22.3452C38.6295 22.3616 39.4623 23.1333 39.4591 23.7281C39.4531 24.9207 39.0776 25.3019 37.9414 25.2695ZM39.0747 32.504C39.0461 33.3885 38.444 34.0936 37.7192 34.0919C37.0139 34.0901 36.2906 33.4181 36.3059 32.7786C36.327 31.9002 37.1041 31.1676 38.0101 31.1719C38.805 31.1758 39.1054 31.5518 39.0747 32.504ZM38.6856 50.3964C37.8974 50.5841 37.0944 50.7122 36.1741 50.8883C36.1198 50.7622 35.9838 50.6053 36.013 50.4881C36.2079 49.7056 36.8747 49.4196 37.5516 49.1642C38.0653 48.9704 38.4392 49.288 38.7853 49.566C39.1234 49.8375 39.0629 50.3066 38.6856 50.3964ZM39.4217 16.1362C39.3961 16.1891 39.3677 16.2407 39.3436 16.2942C38.9502 17.1629 38.6248 17.441 38.1167 17.3417C37.374 17.1966 36.8861 16.5641 36.8597 15.7123C36.8446 15.224 37.2249 14.741 37.8941 14.5118C38.3787 14.3457 38.8832 14.3464 39.2917 14.7323C39.6734 15.0927 39.7074 15.544 39.4217 16.1362ZM42.1393 37.2552C42.0596 38.1156 41.4105 38.9871 40.8955 38.9253C39.9605 38.813 39.3913 38.1125 39.4759 37.1783C39.5449 36.419 40.2154 35.758 40.8594 35.8145C41.6386 35.8828 42.2071 36.5227 42.1393 37.2552ZM42.0696 45.9535C42.0654 46.7429 41.2407 47.5415 40.4476 47.5237C39.9025 47.5114 39.3509 46.8958 39.3321 46.2789C39.315 45.7182 40.3295 44.8299 40.9855 44.8313C41.6509 44.8327 42.0733 45.2698 42.0696 45.9535ZM42.9919 19.3361C42.9428 19.9585 42.0062 21.0225 41.5504 20.974C40.8789 20.9025 39.8151 19.9366 39.846 19.4264C39.8862 18.766 40.6673 18.0765 41.3118 18.1327C42.2028 18.2106 43.0339 18.8058 42.9919 19.3361ZM42.6169 28.5488C42.6038 29.314 42.0359 29.7929 41.1805 29.76C40.3516 29.7282 39.8258 29.1469 39.8892 28.3325C39.9688 27.3105 40.3613 26.9206 41.2823 26.9492C41.9537 26.9702 42.6301 27.7805 42.6169 28.5488ZM42.9119 11.1093C42.9115 11.187 42.8986 11.2646 42.8915 11.3422C42.9105 11.9934 42.5747 12.5055 42.1219 12.909C41.9578 13.0552 41.5753 13.0201 41.3038 12.9844C40.7089 12.9064 40.253 12.5014 40.2114 11.9763C40.1779 11.5548 40.4514 11.0615 40.713 10.6826C40.8909 10.4248 41.2632 10.2531 41.5842 10.1417C42.4553 9.83958 42.9172 10.1936 42.9119 11.1093ZM45.1849 24.7124C44.7797 25.0815 44.1736 25.2385 43.5919 25.5159C43.2275 25.2992 42.8237 25.1865 42.6477 24.926C42.3525 24.4886 42.3659 23.9597 42.6773 23.4894C42.9998 23.0021 44.122 22.5467 44.6857 22.7048C45.1064 22.8229 45.6197 23.0145 45.6346 23.4672C45.6485 23.8874 45.4828 24.4409 45.1849 24.7124ZM45.3283 42.251C45.2167 42.6661 44.9777 42.9285 44.5327 43.0122C44.2885 43.0581 44.0544 43.1547 43.8143 43.2232C43.2009 43.3982 42.5096 42.7875 42.4069 41.9771C42.3946 41.8812 42.4084 41.7823 42.4093 41.7311C42.3233 40.9881 42.8974 40.752 43.3448 40.4654C43.721 40.2243 44.6843 40.3725 44.9712 40.7157C45.3362 41.1522 45.4832 41.6746 45.3283 42.251ZM45.545 32.8157C45.4188 33.812 45.3677 34.1139 44.6933 34.3156C43.4823 34.6778 43.0862 34.2096 42.8069 32.9537C42.6356 32.1832 43.3874 31.3422 44.1921 31.2844C44.9548 31.2298 45.5585 31.913 45.545 32.8157ZM46.2461 6.68509C46.2191 7.55924 45.3743 8.6095 44.7078 8.59761C44.1751 8.58814 43.2433 7.42968 43.2515 6.78727C43.2608 6.06085 44.1041 5.46808 45.1301 5.46679C45.7119 5.46615 46.2651 6.06985 46.2461 6.68509ZM45.8426 16.2157C45.7729 16.4254 45.71 16.8019 45.5307 17.114C45.1792 17.7258 44.6933 17.8121 44.0774 17.4433C43.6272 17.1736 43.2735 16.4687 43.3458 16.008C43.4548 15.3138 43.8371 14.7979 44.5006 14.576C45.1947 14.3438 45.8411 15.0931 45.8426 16.2157ZM48.6525 37.665C48.4158 38.0731 47.3641 38.5985 46.889 38.5804C45.8706 38.542 45.3529 37.589 45.8857 36.7335C46.2136 36.207 47.4111 35.7094 47.9909 35.9243C48.9035 36.2625 49.21 36.7029 48.6525 37.665ZM48.9162 12.2818C48.516 12.6587 47.915 12.8307 47.6282 12.9795C46.3641 12.936 45.8677 12.1569 46.2642 11.2807C46.5565 10.635 47.8369 10.0928 48.5088 10.3302C49.4852 10.675 49.7073 11.5366 48.9162 12.2818ZM48.2534 29.7439C48.1544 29.8373 47.9935 29.9222 47.8627 29.9199C47.0545 29.9053 45.8372 28.7958 45.8769 28.1331C45.9095 27.5875 46.7126 27.0346 47.417 27.0728C48.31 27.1212 49.0545 27.75 49.0819 28.3585C49.1121 29.0306 48.6584 29.362 48.2534 29.7439ZM49.2408 19.4562C49.1567 20.0923 48.2645 21.1198 47.8287 21.0822C47.1093 21.02 46.0725 20.0509 46.1191 19.484C46.176 18.7924 46.8857 18.1817 47.5637 18.2406C48.4477 18.3174 49.3087 18.9414 49.2408 19.4562ZM51.9455 23.9999C51.9271 24.7472 51.2755 25.5061 50.6771 25.4773C49.811 25.4354 48.9146 24.7034 48.9498 24.0665C48.9909 23.3258 49.8717 22.526 50.6193 22.5507C51.3414 22.5745 51.9637 23.2546 51.9455 23.9999ZM51.6427 33.3082C51.617 33.3609 51.5787 33.4078 51.5542 33.4609C51.1187 34.4045 50.8528 34.6316 50.2939 34.535C49.5655 34.4092 49.0716 33.7647 49.0266 32.5893C49.039 32.1915 49.6237 31.9669 50.1162 31.7188C50.5967 31.4769 51.1045 31.5757 51.4943 31.9549C51.9015 32.3511 51.8782 32.827 51.6427 33.3082ZM49.7615 40.8566C49.5243 41.3589 49.2871 41.8613 49.0203 42.4262C48.7427 41.7468 48.9986 41.1622 49.7615 40.8566ZM52.3208 15.962C52.3323 16.7539 51.5267 17.5559 50.7109 17.5646C50.1865 17.5701 49.6247 16.9373 49.5909 16.303C49.5627 15.771 50.5606 14.8769 51.2048 14.8572C51.8662 14.8368 52.3108 15.2769 52.3208 15.962ZM55.488 19.5398C55.4425 20.1297 54.5338 21.2149 54.1046 21.1919C53.3559 21.1517 52.3077 20.1608 52.3745 19.5563C52.4541 18.8379 53.1486 18.2934 53.9075 18.3548C54.6949 18.4185 55.5263 19.0419 55.488 19.5398ZM55.1156 12.5938C54.8962 12.9204 54.5823 12.9167 54.2703 12.7931C53.867 12.6335 53.4134 12.5049 53.1063 12.2292C52.8279 11.9795 52.7167 11.5503 52.5318 11.2003C52.6663 10.6623 52.9099 10.3245 53.3588 10.164C53.7282 10.032 54.3839 10.3177 54.5912 10.6586C54.7829 10.9737 54.9325 11.323 55.1712 11.5985C55.4986 11.9764 55.3315 12.2723 55.1156 12.5938ZM55.1043 28.2878C55.0869 29.0982 54.262 29.8872 53.4632 29.8574C52.9581 29.8386 52.3731 29.1416 52.3722 28.5577C52.3714 27.9994 53.4308 27.142 54.0925 27.1655C54.7501 27.1886 55.1191 27.5982 55.1043 28.2878Z" fill="#FDD152"/>
</svg>
