<svg width="21" height="23" viewBox="0 0 21 23" fill="none" xmlns="http://www.w3.org/2000/svg">
<path d="M18.3218 6.31242C18.3013 5.96254 18.0371 5.69042 17.7168 5.69042H14.5105V4.6529C14.5105 2.57526 12.7113 0.884644 10.5004 0.884644C8.28953 0.884644 6.49036 2.57526 6.49036 4.6529V5.69042H3.28404C2.96381 5.69042 2.69957 5.96254 2.67906 6.31242L1.81852 21.4105C1.80827 21.5936 1.86743 21.7725 1.9818 21.9064C2.09617 22.0394 2.25629 22.1154 2.42351 22.1154H18.5774C18.7446 22.1154 18.9047 22.0394 19.0191 21.9064C19.1334 21.7725 19.1926 21.5936 19.1823 21.4105L18.3218 6.31242ZM7.7019 4.6529C7.7019 3.30697 8.95761 2.21157 10.5004 2.21157C12.0432 2.21157 13.299 3.30697 13.299 4.6529V5.69042H7.7019V4.6529ZM6.49036 7.01734V8.4583C6.49036 8.82458 6.7617 9.12176 7.09613 9.12176C7.43057 9.12176 7.7019 8.82458 7.7019 8.4583V7.01734H13.299V8.4583C13.299 8.82458 13.5703 9.12176 13.9047 9.12176C14.2392 9.12176 14.5105 8.82458 14.5105 8.4583V7.01734H17.1473L17.6722 16.2177H3.32866L3.85353 7.01734H6.49036ZM3.06792 20.7885L3.27823 17.1023H17.7226L17.9329 20.7885H3.06792Z" fill="#2B241E"/>
</svg>
