<svg width="146" height="157" viewBox="0 0 146 157" fill="none" xmlns="http://www.w3.org/2000/svg">
<g clip-path="url(#clip0)">
<path fill-rule="evenodd" clip-rule="evenodd" d="M101.6 86.2651C102.883 85.8112 106.73 84.4493 104.97 79.3202C104.505 77.9674 103.87 77.8609 102.807 77.2096C101.643 76.4969 99.5765 76.1797 98.5191 77.2891C96.6904 79.2076 95.0198 79.6651 95.9922 82.4979C96.9647 85.3306 100.318 86.7191 101.6 86.2651Z" fill="#08242A"/>
<path fill-rule="evenodd" clip-rule="evenodd" d="M136.251 44.1584C135.344 43.1554 132.626 40.1465 128.591 43.8221C127.528 44.7914 127.672 45.4205 127.481 46.6628C127.271 48.0221 127.769 50.0574 129.191 50.5907C131.65 51.5129 132.708 52.8729 134.936 50.8429C137.164 48.8129 137.157 45.1613 136.251 44.1584Z" fill="#08242A"/>
<path fill-rule="evenodd" clip-rule="evenodd" d="M126.317 66.7437C125.411 65.7407 124.333 64.8943 121.479 67.4945C120.415 68.4638 120.56 69.0929 120.368 70.3352C120.159 71.6945 120.535 74.1953 122.079 74.2631C123.994 74.3471 124.689 75.5423 126.917 73.5123C129.145 71.4823 127.224 67.7467 126.317 66.7437Z" fill="#08242A"/>
<path fill-rule="evenodd" clip-rule="evenodd" d="M118.906 54.0396C116.964 51.8904 115.308 52.0929 113.382 53.8474C112.664 54.5016 112.777 54.9425 112.668 55.804C112.55 56.7465 113.466 58.9958 114.461 59.3953C116.182 60.0861 117.349 59.3768 117.914 58.8623C118.478 58.3479 120.848 56.1889 118.906 54.0396Z" fill="#08242A"/>
<path fill-rule="evenodd" clip-rule="evenodd" d="M59.0318 99.4176C59.4295 98.1134 60.6226 94.2008 55.4374 92.6549C54.0699 92.2473 53.6058 92.7009 52.4471 93.1863C51.1795 93.7173 49.6929 95.2107 49.9578 96.7125C50.4159 99.3095 49.7899 100.931 52.6536 101.784C55.5173 102.638 58.6341 100.722 59.0318 99.4176Z" fill="#08242A"/>
<path fill-rule="evenodd" clip-rule="evenodd" d="M45.7109 46.871C44.3623 47.0249 40.3164 47.4865 40.8781 52.8926C41.0262 54.3184 41.6198 54.5657 42.5076 55.4418C43.4789 56.4004 45.417 57.1765 46.6939 56.3318C48.9019 54.871 50.6287 54.8013 50.3185 51.8155C50.0083 48.8298 47.0595 46.7171 45.7109 46.871Z" fill="#08242A"/>
<path fill-rule="evenodd" clip-rule="evenodd" d="M58.0088 68.0335C56.6601 68.1874 55.3354 68.5714 55.7328 72.3958C55.8809 73.8216 56.4744 74.069 57.3622 74.9451C58.3336 75.9036 60.5743 77.0489 61.5485 75.835C62.7568 74.3296 64.1347 74.4584 63.8245 71.4726C63.5143 68.4869 59.3574 67.8796 58.0088 68.0335Z" fill="#08242A"/>
<path fill-rule="evenodd" clip-rule="evenodd" d="M43.3498 66.681C40.4599 67.0107 39.637 68.4722 39.9052 71.0528C40.0051 72.0149 40.4278 72.1793 41.058 72.7669C41.7475 73.4098 44.1072 73.9707 45.0221 73.3946C46.6042 72.3984 46.7269 71.0401 46.6483 70.2835C46.5697 69.5268 46.2398 66.3513 43.3498 66.681Z" fill="#08242A"/>
<path fill-rule="evenodd" clip-rule="evenodd" d="M82.3348 27.9483C81.5177 29.0417 79.0665 32.3219 83.3949 35.5588C84.5364 36.4124 85.1257 36.1439 86.3762 36.0838C87.7443 36.0181 89.6455 35.1198 89.9094 33.6128C90.3659 31.0067 91.5048 29.6927 89.1144 27.905C86.7239 26.1173 83.1519 26.8549 82.3348 27.9483Z" fill="#08242A"/>
<path fill-rule="evenodd" clip-rule="evenodd" d="M76.8934 82.0697C78.2087 82.3873 82.1546 83.3403 83.4719 78.0497C83.8193 76.6544 83.3478 76.2175 82.8151 75.0867C82.2324 73.8495 80.6821 72.4527 79.1985 72.8111C76.6328 73.4309 74.9921 72.9041 74.2646 75.8261C73.5371 78.748 75.578 81.752 76.8934 82.0697Z" fill="#08242A"/>
<path fill-rule="evenodd" clip-rule="evenodd" d="M72.5929 57.8943C73.9082 58.2119 75.2796 58.3043 76.2115 54.5616C76.5589 53.1663 76.0874 52.7294 75.5547 51.5986C74.972 50.3614 73.2643 48.5126 71.9381 49.323C70.2935 50.328 69.047 49.7337 68.3195 52.6556C67.592 55.5776 71.2776 57.5766 72.5929 57.8943Z" fill="#08242A"/>
<path fill-rule="evenodd" clip-rule="evenodd" d="M86.0475 63.7769C88.8661 64.4576 90.1349 63.3618 90.7637 60.8363C90.9981 59.8948 90.6584 59.5948 90.2686 58.8244C89.8422 57.9816 87.8237 56.643 86.7706 56.8723C84.9494 57.2688 84.3714 58.5075 84.1871 59.248C84.0027 59.9885 83.229 63.0962 86.0475 63.7769Z" fill="#08242A"/>
<path fill-rule="evenodd" clip-rule="evenodd" d="M28.8582 95.9063C26.7313 97.9126 26.9461 99.5682 28.7099 101.452C29.3675 102.155 29.8061 102.03 30.6656 102.115C31.6059 102.209 33.8406 101.229 34.231 100.22C34.906 98.4745 34.1899 97.3235 33.6727 96.771C33.1555 96.2186 30.9851 93.9001 28.8582 95.9063Z" fill="#08242A"/>
<path fill-rule="evenodd" clip-rule="evenodd" d="M9.92221 111.556C10.8174 114.32 12.4057 114.81 14.8688 113.986C15.7871 113.679 15.8634 113.228 16.3113 112.482C16.8013 111.666 16.8797 109.228 16.1364 108.456C14.851 107.12 13.5023 107.294 12.7801 107.536C12.0579 107.778 9.02703 108.791 9.92221 111.556Z" fill="#08242A"/>
</g>
<defs>
<clipPath id="clip0">
<rect width="131.036" height="85.1256" fill="white" transform="translate(0 106.306) rotate(-54.2201)"/>
</clipPath>
</defs>
</svg>
