<svg width="16" height="15" viewBox="0 0 16 15" fill="none" xmlns="http://www.w3.org/2000/svg">
<path d="M14.7065 1.28514C13.9151 0.502045 12.7745 2.61297e-05 11.5746 2.61297e-05C10.8681 2.61297e-05 10.2043 0.161623 9.5661 0.485182C8.92768 0.808532 8.40862 1.25099 8.00009 1.81275C7.59159 1.25099 7.07247 0.808532 6.43411 0.485156C5.79573 0.161623 5.13193 0 4.42565 0C3.22568 0 2.08528 0.502045 1.29366 1.28511C0.502202 2.06805 0 3.20846 0 4.4086C0 5.23399 0.175375 6.03523 0.391455 6.6384C0.498751 6.93744 0.660896 7.26152 0.876585 7.59162C1.09484 7.9255 1.29364 8.20438 1.46376 8.42551C1.63406 8.64687 1.87662 8.92353 2.20418 9.24256C2.5319 9.56191 2.7999 9.81282 2.99562 9.99149C3.19133 10.1704 3.48911 10.4343 3.88075 10.7746C4.33158 11.1662 4.65313 11.4578 4.85956 11.6426C5.06163 11.8237 5.35324 12.1022 5.73614 12.4682C6.51069 13.2084 7.07898 13.8906 7.61698 14.6724C7.71737 14.8184 7.84684 14.8852 7.99988 14.8852C8.16166 14.8852 8.30164 14.8198 8.39986 14.6724C8.74431 14.1558 9.14246 13.6275 9.60837 13.1064C10.0786 12.5806 10.4701 12.1726 10.7829 11.8809C11.0999 11.5853 11.5557 11.1728 12.1447 10.6469C12.5089 10.3216 12.7999 10.0767 12.9958 9.89802C13.1915 9.7192 13.4468 9.47242 13.7619 9.15762C14.0767 8.84261 14.3256 8.57189 14.5023 8.34893C14.6831 8.12088 14.8741 7.84506 15.0895 7.51499C15.5294 6.84084 15.722 6.30705 15.8809 5.55755C15.96 5.18354 16 4.80005 16 4.40863C16.0002 3.20845 15.498 2.06805 14.7065 1.28514ZM14.9789 5.27664C14.8149 6.22096 14.3216 7.14711 13.498 8.05965C13.1386 8.45782 12.4788 9.09169 11.515 9.94903C11.0149 10.3939 10.613 10.7577 10.2979 11.047C9.99164 11.328 9.61491 11.7086 9.16609 12.1874C8.72125 12.6618 8.33199 13.132 8.00007 13.5916C7.65109 13.1406 7.24895 12.683 6.79158 12.2128C6.32985 11.7384 5.97455 11.3788 5.71073 11.1405C5.44691 10.9023 5.04495 10.5469 4.4937 10.0596L3.90653 9.54053L3.37037 9.05537C3.13815 8.8453 2.95949 8.67445 2.84273 8.5448C2.72981 8.41918 2.57893 8.25539 2.39174 8.05112C2.20455 7.84686 2.06057 7.6677 1.96614 7.52348C1.77116 7.22518 1.4396 6.78 1.31941 6.40852L1.12367 5.80428C0.980979 5.3638 0.936481 4.91062 0.936481 4.4086C0.936481 3.45539 1.2769 2.63836 1.95777 1.96601C2.64717 1.28516 3.46422 0.944717 4.42578 0.944717C5.0981 0.944717 5.71941 1.12336 6.28972 1.4894C6.86 1.85524 7.29956 2.33767 7.58335 2.94464C7.6656 3.12074 7.80469 3.20846 8.00041 3.20846C8.19612 3.20846 8.34736 3.12675 8.43453 2.94464C8.72193 2.34348 9.13244 1.85524 9.70257 1.4894C10.2727 1.12336 10.9025 0.944717 11.5749 0.944717C12.5366 0.944717 13.3536 1.28514 14.0345 1.95749C14.7154 2.62983 15.0558 3.44686 15.0558 4.4086C15.0555 4.70635 15.0277 4.9954 14.9789 5.27664Z" fill="black"/>
<path d="M3.99962 0.442627C5.59962 0.442627 7.33296 2.10929 7.99962 2.94263C8.39932 1.74263 10.1664 0.77596 11 0.442627C12.2 0.442627 13.5 1.10929 14 1.44263C15 1.94263 15.5 4.44263 15.5 5.44263C15.5 6.24263 14.1667 8.10929 13.5 8.94263L11 11.4426L8 13.9426L7.5 13.4426C6.66654 12.776 4.69962 11.1426 3.49962 9.94263C0.699622 7.94263 0.332956 4.77596 0.499622 3.44263C0.999622 2.44263 2.39962 0.442627 3.99962 0.442627Z" fill="black" stroke="black" stroke-width="0.25"/>
</svg>
