<svg width="100" height="112" viewBox="0 0 100 112" fill="none" xmlns="http://www.w3.org/2000/svg">
<g clip-path="url(#clip0)">
<path d="M50.0994 0C50.3994 0.5 50.8994 1.1 50.8994 1.6C50.9994 3.7 50.8994 5.8 50.8994 7.9C50.8994 8.6 50.8994 9.3 49.8994 9.3C48.9994 9.3 48.8994 8.7 48.8994 7.9C48.8994 5.9 48.9994 3.8 48.8994 1.8C48.8994 0.9 49.1994 0.4 49.8994 0C49.8994 0 49.9994 0 50.0994 0Z" fill="black"/>
<path d="M70.0001 18.6C72.6001 22.4 75.1001 26 77.5001 29.6C78.7001 31.3 79.9001 33 81.1001 34.8C82.9001 37.3 85.3001 37.8 87.8001 36C90.6001 34.1 93.3001 32.2 96.1001 30.3C96.7001 29.9 97.5001 29.3 98.0001 30.3C98.5001 31.1 97.9001 31.7 97.2001 32.1C94.5001 33.9 91.8001 35.8 89.1001 37.6C85.5001 40 82.0001 39.5 79.3001 36C79.2001 35.8 79.0001 35.6 78.8001 35.4C76.1001 38.8 75.8001 39 71.8001 40.6C71.8001 42.2 71.6001 43.7 70.1001 44.6C69.7001 44.9 69.2001 45 68.8001 45.2C68.5001 45.4 68.1001 45.7 68.1001 46.1C67.8001 48.7 66.8001 50 64.3001 50.8C64.0001 50.9 63.7001 51.1 63.6001 51.4C62.5001 54.6 61.7001 55.3 58.5001 55.4C55.9001 59.8 53.8001 60.5 49.7001 58.2C46.9001 60.1 44.4001 59.5 42.3001 56.6C39.5001 58.7 36.0001 58.1 34.0001 54.1C30.5001 55 26.6001 52.9 27.2001 48.2C26.6001 48 26.0001 47.9 25.4001 47.7C22.5001 46.7 21.3001 43.6 22.8001 40.9C23.2001 40.2 23.1001 39.9 22.6001 39.3C21.6001 38.2 20.8001 36.9 19.9001 35.8C19.3001 36.3 18.6001 37 17.9001 37.5C15.6001 38.9 13.3001 38.9 11.0001 37.5C7.90008 35.5 5.00008 33.4 2.00008 31.3C1.50008 30.9 1.00008 30.5 1.50008 29.8C2.00008 29.1 2.70008 29.3 3.30008 29.7C5.90008 31.5 8.50008 33.2 11.0001 35.1C14.1001 37.4 16.9001 36.5 18.7001 33.6C22.0001 28.6 25.5001 23.7 28.9001 18.8C29.0001 18.6 29.2001 18.4 29.4001 18C28.6001 17.4 27.8001 16.8 27.0001 16.3C23.8001 14.1 20.6001 11.9 17.4001 9.69999C16.7001 9.29999 16.0001 8.79999 16.6001 7.89999C17.2001 7.09999 17.9001 7.49999 18.6001 7.89999C22.7001 10.7 26.9001 13.6 31.0001 16.4C31.7001 16.9 32.4001 17.4 33.2001 17.8C35.3001 19 37.3001 18.5 39.3001 17.3C41.9001 15.6 44.8001 15.4 47.7001 16.3C48.1001 16.4 48.5001 16.6 48.8001 16.5C52.1001 15.2 55.2001 16.7 58.2001 17.5C61.2001 18.3 64.1001 18.3 67.0001 17.5C67.7001 17.3 68.3001 17 68.9001 16.6C72.9001 13.9 76.9001 11.1 80.9001 8.39999C81.1001 8.29999 81.2001 8.09999 81.4001 8.09999C82.0001 8.09999 82.8001 7.89999 83.0001 8.19999C83.6001 8.79999 83.2001 9.39999 82.5001 9.79999C80.4001 11.3 78.2001 12.7 76.1001 14.2C74.2001 15.7 72.2001 17.1 70.0001 18.6ZM32.4001 41.1C32.9001 41 33.2001 40.8 33.6001 40.8C35.9001 40.2 38.5001 41.4 39.3001 43.7C39.7001 44.7 40.2001 44.9 41.1001 44.9C43.4001 44.8 45.6001 46.5 46.0001 48.6C46.2001 49.5 46.5001 49.6 47.3001 49.7C50.1001 49.9 52.0001 52.5 51.6001 55.2C51.5001 55.8 50.8001 56.6 51.9001 56.9C52.6001 57.1 53.5001 57.5 54.0001 57.3C54.8001 57 55.5001 56.2 56.1001 55.5C56.6001 54.9 56.4001 54.3 55.7001 53.9C54.7001 53.3 53.7001 52.6 52.7001 52C52.1001 51.6 51.4001 51.2 51.9001 50.3C52.5001 49.4 53.2001 49.8 53.8001 50.2C55.2001 51.1 56.7001 52.1 58.1001 53C59.1001 53.6 60.5001 53.2 61.2001 52.2C61.8001 51.3 61.5001 50.5 60.4001 49.7C59.3001 48.9 58.1001 48.2 57.0001 47.4C55.0001 46.1 53.0001 44.7 51.1001 43.3C50.8001 43.1 50.5001 42.3 50.7001 41.9C51.0001 41.2 51.7001 41.3 52.3001 41.6C52.6001 41.8 52.9001 42 53.2001 42.2C56.2001 44.2 59.1001 46.3 62.1001 48.3C63.4001 49.2 64.7001 48.9 65.5001 47.7C66.4001 46.4 66.2001 45.3 64.7001 44.3C61.6001 42.2 58.5001 40.1 55.4001 38C54.9001 37.6 54.3001 37.3 53.9001 36.9C53.7001 36.6 53.5001 36 53.7001 35.7C53.9001 35.4 54.4001 35.2 54.8001 35.2C55.2001 35.2 55.5001 35.5 55.9001 35.8C59.4001 38.1 62.9001 40.5 66.5001 42.8C67.7001 43.6 68.8001 43.4 69.4001 42.5C70.0001 41.6 69.7001 40.5 68.5001 39.7C63.1001 35.9 57.7001 32.2 52.4001 28.4C51.0001 27.4 48.6001 28.2 47.9001 29.7C47.2001 31.2 46.6001 32.8 45.8001 34.2C44.2001 37.2 40.3001 38.1 37.7001 36.3C36.9001 35.8 36.6001 35.1 36.9001 34.2C37.5001 32.5 38.1001 30.7 38.4001 28.9C39.0001 25.2 40.7001 22.3 43.9001 20.2C44.8001 19.6 45.5001 18.8 46.4001 18C44.2001 17.7 42.2001 17.6 40.6001 18.8C37.9001 20.7 35.1001 21.1 32.1001 19.6C31.4001 19.3 31.0001 19.5 30.6001 20.1C27.6001 24.4 24.7001 28.7 21.7001 33C21.5001 33.2 21.4001 33.7 21.5001 33.8C22.3001 35.1 23.2001 36.4 24.1001 37.6C24.5001 38.2 24.9001 38.3 25.7001 38C26.4001 37.7 27.3001 37.6 28.1001 37.7C30.2001 38.2 31.5001 39.3 32.4001 41.1ZM39.2001 34.8C41.3001 35.8 43.2001 35.1 44.3001 33.1C45.0001 31.7 45.7001 30.2 46.3001 28.6C46.8001 27.3 47.6001 26.8 48.8001 26.3C51.1001 25.4 52.9001 25.9 54.8001 27.3C59.4001 30.7 64.2001 33.9 68.9001 37.2C70.9001 38.6 72.1001 38.7 74.3001 37.1C75.4001 36.3 76.1001 35.2 77.0001 34.2C77.6001 33.6 77.4001 33 76.9001 32.4C74.2001 28.5 71.4001 24.6 68.8001 20.6C68.2001 19.7 67.6001 19.5 66.5001 19.7C64.7001 20 62.8001 20.4 60.9001 20.2C58.3001 19.9 55.7001 19.1 53.1001 18.4C51.3001 17.9 49.6001 18.1 48.2001 19.4C46.3001 21.1 44.3001 22.8 42.4001 24.6C42.1001 24.9 41.8001 25.2 41.7001 25.6C40.9001 28.6 40.1001 31.7 39.2001 34.8ZM34.8001 42.4C34.0001 43 33.2001 43.2 32.8001 43.8C31.7001 45.3 30.6001 47 29.7001 48.6C29.0001 49.8 29.6001 51.2 30.9001 52C32.2001 52.7 33.5001 52.5 34.3001 51.2C35.2001 49.8 36.1001 48.3 37.1001 46.9C37.7001 46 37.8001 45 37.2001 44.2C36.6001 43.5 35.7001 43 34.8001 42.4ZM39.4001 55.9C40.0001 55.4 40.8001 55.1 41.3001 54.5C42.1001 53.5 42.8001 52.3 43.5001 51.2C44.4001 49.8 44.1001 48.4 42.8001 47.4C41.5001 46.4 40.0001 46.7 39.0001 48.1C38.2001 49.2 37.5001 50.3 36.8001 51.4C36.2001 52.3 36.0001 53.1 36.6001 54.1C37.1001 55.1 38.0001 55.7 39.4001 55.9ZM30.4001 42.7C30.4001 41.3 29.2001 40.1 27.7001 40C26.2001 40 24.4001 41.8 24.4001 43.4C24.4001 44.7 25.9001 46.1 27.3001 46.1C28.7001 46.1 30.4001 44.2 30.4001 42.7ZM46.8001 57.2C48.1001 57.2 49.5001 55.6 49.5001 54.3C49.5001 52.9 48.3001 51.9 46.8001 51.9C45.5001 51.9 44.1001 53.5 44.2001 54.9C44.3001 56.1 45.4001 57.2 46.8001 57.2Z" fill="black"/>
<path d="M78.5997 98.7C74.9997 98.7 71.6997 98.7 68.2997 98.7C68.1997 100.3 68.0997 102 67.8997 103.6C67.6997 105.2 67.4997 106.7 67.0997 108.3C66.9997 108.7 66.3997 109 65.9997 109.3C65.6997 108.9 65.0997 108.4 65.1997 108C65.3997 105.8 65.6997 103.5 65.9997 101.3C66.0997 100.5 66.0997 99.7 66.1997 98.8C60.9997 98.8 55.9997 98.8 50.7997 98.8C50.7997 99.2 50.7997 99.7 50.7997 100.1C50.7997 103.2 50.7997 106.4 50.7997 109.5C50.7997 110.3 51.1997 111.5 49.7997 111.5C48.2997 111.5 48.7997 110.2 48.7997 109.4C48.7997 105.9 48.7997 102.4 48.7997 98.7C43.6997 98.7 38.6997 98.7 33.3997 98.7C33.4997 100.3 33.6997 102 33.7997 103.6C33.9997 105 34.2997 106.4 34.3997 107.8C34.3997 108.2 33.8997 108.7 33.5997 109.1C33.1997 108.8 32.4997 108.4 32.4997 108C32.0997 105.6 31.7997 103.1 31.4997 100.7C31.3997 100 31.4997 99.4 31.4997 98.6C27.9997 98.6 24.6997 98.6 21.0997 98.6C21.1997 99.5 21.1997 100.4 21.2997 101.3C21.3997 102.1 21.1997 102.9 20.3997 102.9C19.9997 102.9 19.1997 102.2 19.1997 101.7C17.8997 91.4 20.8997 82.4 28.2997 75.1C33.0997 70.4 38.8997 67.7 45.4997 66.7C61.6997 64.4 76.8997 75.3 80.1997 91.4C80.8997 94.8 80.9997 98.2 80.3997 101.6C80.2997 102.1 79.5997 102.8 79.1997 102.9C78.3997 102.9 78.0997 102.2 78.2997 101.3C78.3997 100.6 78.4997 99.7 78.5997 98.7ZM48.6997 81.2C45.1997 80.8 41.7997 80.5 38.3997 80C36.9997 79.8 36.5997 80.2 36.2997 81.3C35.3997 84.8 34.4997 88.4 33.6997 91.9C33.3997 93.3 33.4997 94.8 33.3997 96.3C38.5997 96.3 43.6997 96.3 48.6997 96.3C48.6997 91.2 48.6997 86.2 48.6997 81.2ZM66.2997 96.3C66.0997 94.3 66.0997 92.4 65.6997 90.5C64.9997 87.1 63.9997 83.8 63.0997 80.5C62.8997 79.9 62.5997 79.7 61.7997 79.8C59.2997 80.2 56.7997 80.4 54.1997 80.7C53.0997 80.8 51.9997 80.9 50.8997 81C50.8997 86.1 50.8997 91.2 50.8997 96.2C55.9997 96.3 60.9997 96.3 66.2997 96.3ZM31.3997 96.4C31.4997 90.5 32.5997 84.9 34.7997 79.4C33.0997 78.9 31.4997 78.5 29.9997 78C29.1997 77.7 28.7997 77.9 28.2997 78.5C25.4997 81.6 23.4997 85.2 22.2997 89.2C21.5997 91.5 20.9997 93.9 21.1997 96.4C24.5997 96.4 27.8997 96.4 31.3997 96.4ZM68.3997 96.3C71.6997 96.3 74.9997 96.3 78.4997 96.3C78.4997 95.8 78.4997 95.3 78.4997 94.9C78.4997 94.4 78.2997 93.8 78.2997 93.3C77.4997 87.6 75.0997 82.6 71.1997 78.3C70.9997 78.1 70.5997 77.8 70.3997 77.8C68.4997 78.3 66.6997 78.8 64.9997 79.3C65.7997 82.2 66.6997 84.9 67.2997 87.6C67.8997 90.4 68.0997 93.3 68.3997 96.3ZM48.6997 69C45.2997 68.5 39.8997 73.4 37.9997 78C41.5997 78.3 45.1997 78.7 48.6997 79C48.6997 75.4 48.6997 72.2 48.6997 69ZM50.8997 68.7C50.8997 72.2 50.8997 75.4 50.8997 79C54.4997 78.6 57.9997 78.3 61.7997 77.9C59.0997 73.4 56.1997 69.8 50.8997 68.7ZM30.6997 76C32.2997 76.4 33.5997 76.7 34.8997 77.1C35.5997 77.4 35.8997 77.1 36.2997 76.5C36.9997 75.3 37.7997 74.1 38.5997 73C39.2997 72.1 40.0997 71.2 40.8997 70.3C37.0997 71.4 33.7997 73.2 30.6997 76ZM58.9997 70.2C60.4997 72.4 62.0997 74.7 63.6997 77C63.7997 77.1 64.0997 77.3 64.1997 77.2C65.6997 76.8 67.1997 76.4 68.8997 76C65.7997 73.2 62.4997 71.4 58.9997 70.2Z" fill="black"/>
<path d="M87.0997 67.4C87.0997 68.6 87.0997 69.6 87.0997 70.7C87.0997 72 86.2997 72.5 85.1997 71.8C81.3997 69.1 77.5997 66.4 73.7997 63.7C72.6997 62.9 72.7997 62.3 73.7997 61.5C77.4997 58.8 81.2997 56.1 85.0997 53.5C85.4997 53.3 86.0997 53.1 86.4997 53.3C86.7997 53.5 86.9997 54.1 87.0997 54.5C87.1997 55.6 87.0997 56.7 87.0997 57.9C87.8997 57.9 88.5997 57.9 89.1997 57.9C92.1997 57.9 95.1997 57.9 98.2997 57.9C98.9997 57.9 99.6997 58 99.6997 58.9C99.6997 59.8 98.9997 59.9 98.2997 59.9C94.3997 59.9 90.5997 59.9 86.6997 59.9C85.4997 59.9 84.9997 59.5 85.0997 58.3C85.0997 57.7 85.0997 57.1 85.0997 56.1C81.8997 58.3 78.9997 60.4 75.9997 62.5C78.9997 64.6 81.8997 66.7 85.0997 69C85.0997 67.9 85.0997 67.2 85.0997 66.4C85.0997 65.6 85.4997 65.2 86.2997 65.2C89.4997 65.2 92.6997 65.2 95.8997 65.2C96.5997 65.2 97.0997 65.4 97.1997 66.2C97.1997 67.1 96.5997 67.2 95.9997 67.3C93.3997 67.3 90.8997 67.3 88.2997 67.3C87.8997 67.3 87.4997 67.3 87.0997 67.4Z" fill="black"/>
<path d="M23.6997 62.6C20.5997 60.4 17.6997 58.4 14.5997 56.2C14.5997 57.2 14.5997 58 14.5997 58.7C14.5997 59.6 14.1997 60 13.2997 60C10.0997 60 6.89973 60 3.69973 59.9C3.29973 59.9 2.59973 59.4 2.49973 59C2.29973 58.2 2.89973 57.9 3.69973 57.9C6.09973 57.9 8.59973 57.9 10.9997 57.9C11.4997 57.9 11.8997 57.9 12.5997 57.9C12.5997 56.7 12.5997 55.6 12.5997 54.4C12.5997 53.1 13.4997 52.7 14.4997 53.4C18.2997 56.1 22.0997 58.8 25.8997 61.5C26.8997 62.2 26.8997 62.9 25.8997 63.6C22.0997 66.3 18.2997 69 14.4997 71.7C13.3997 72.4 12.5997 72 12.5997 70.7C12.5997 69.6 12.5997 68.5 12.5997 67.3C11.3997 67.3 10.3997 67.3 9.39973 67.3C6.79973 67.3 4.29973 67.3 1.69973 67.3C0.999729 67.3 -0.000270844 67.4 0.0997292 66.3C0.0997292 65.2 0.899729 65.3 1.69973 65.3C5.49973 65.3 9.19973 65.3 12.9997 65.3C14.1997 65.3 14.6997 65.7 14.5997 66.9C14.5997 67.5 14.5997 68.1 14.5997 69.1C17.6997 66.8 20.5997 64.7 23.6997 62.6Z" fill="black"/>
<path d="M86.0997 31.7C85.8997 31.6 85.3997 31.6 85.0997 31.4C84.7997 31.1 84.4997 30.6 84.5997 30.2C84.5997 29.9 85.1997 29.6 85.4997 29.5C86.1997 29.4 86.7997 29.6 86.8997 28.6C86.8997 28.3 87.7997 27.7 87.9997 27.8C88.3997 28 88.8997 28.6 88.8997 29.1C88.9997 30.4 87.5997 31.7 86.0997 31.7Z" fill="black"/>
<path d="M13.9 31.2C12.1 31.2 10.6 29.8 10.7 28.5C10.7 28.1 11.2 27.7 11.5 27.3C11.9 27.6 12.4 27.9 12.8 28.2C13.1 28.5 13.4 29 13.7 29C14.5 29 15.3 29.1 15.1 30C15 30.5 14.2 30.9 13.9 31.2Z" fill="black"/>
<path d="M60.7996 7.20002C60.1996 8.30002 59.5996 9.30002 58.9996 10.3C58.8996 10.5 58.0996 10.5 57.8996 10.3C57.5996 10.1 57.3996 9.50002 57.4996 9.10002C57.7996 8.30002 58.1996 7.50002 58.6996 6.80002C58.8996 6.50002 59.4996 6.40002 59.8996 6.40002C60.0996 6.40002 60.3996 6.80002 60.7996 7.20002Z" fill="black"/>
<path d="M42.4999 9.39997C42.1999 9.79997 41.9999 10.2 41.6999 10.3C41.3999 10.4 40.7999 10.3 40.5999 10.1C40.0999 9.29998 39.5999 8.39998 39.2999 7.39998C39.1999 7.09998 39.4999 6.59998 39.7999 6.39998C40.0999 6.29998 40.6999 6.29997 40.8999 6.49997C41.4999 7.49997 41.8999 8.39997 42.4999 9.39997Z" fill="black"/>
</g>
<defs>
<clipPath id="clip0">
<rect width="99.6" height="111.5" fill="white"/>
</clipPath>
</defs>
</svg>
