<svg width="107" height="107" viewBox="0 0 107 107" fill="none" xmlns="http://www.w3.org/2000/svg">
<g clip-path="url(#clip0)">
<path d="M36.0015 79.818C34.3609 77.9998 33.8141 75.9089 34.5432 73.5452C34.9989 71.9998 36.0015 70.818 37.4597 70.2725C38.3711 69.9089 38.3711 69.4543 38.28 68.6361C37.642 63.3634 35.6369 58.6361 31.9912 54.7271C28.8924 51.4543 26.1582 47.9998 24.5177 43.7271C24.0619 42.5452 23.6974 41.2725 23.2417 40.0907C23.1505 39.818 22.6948 39.3634 22.4214 39.3634C17.7732 39.2725 13.2161 39.3634 8.56791 39.3634C8.47677 39.5452 8.38563 39.6361 8.38563 39.818C8.38563 43.3634 8.38563 46.818 8.38563 50.3634C8.38563 51.0907 8.84133 51.1816 9.29704 51.3634C12.487 52.7271 14.0364 56.0907 13.125 59.2725C12.2136 62.5452 8.84133 64.5452 5.56024 63.9998C2.18801 63.3634 -0.181665 60.3634 0.0917591 56.9998C0.365183 54.2725 1.7323 52.3634 4.28426 51.3634C4.92225 51.0907 5.10454 50.818 5.10454 50.1816C5.10454 46.2725 5.10454 42.2725 5.10454 38.3634C5.10454 36.5452 5.65138 35.9998 7.47421 35.9998C11.9401 35.9998 16.4061 35.9998 20.872 35.9998C21.2366 35.9998 21.6923 35.9998 22.2391 35.9998C20.9631 24.2725 24.6088 14.5452 33.6318 7.09069C39.6471 1.99978 46.8473 -0.272948 54.7766 -0.000220895C60.7919 0.181597 66.3516 2.09069 71.2732 5.45432C76.1948 8.81796 79.9316 13.2725 82.3924 18.7271C84.8533 24.1816 85.5824 29.9089 84.7621 35.9089C89.4103 35.9089 93.9674 35.9089 98.5245 35.9089C98.5245 31.9998 98.5245 28.1816 98.5245 24.3634C94.6965 22.5452 93.056 19.9089 93.694 16.6361C94.332 13.5452 97.0662 11.3634 100.165 11.2725C103.173 11.2725 105.998 13.3634 106.727 16.2725C107.547 19.7271 106.089 22.1816 101.897 24.4543C101.897 28.6361 101.897 32.7271 101.897 36.9089C101.897 38.9089 101.441 39.2725 99.527 39.2725C94.8788 39.2725 90.3217 39.2725 85.6735 39.2725C84.9444 39.2725 84.4887 39.4543 84.3064 40.2725C82.9393 44.9998 80.5696 49.1816 77.1974 52.7271C74.0986 55.9998 71.4555 59.6361 70.2706 63.9998C69.8149 65.6361 69.6326 67.3634 69.4504 68.9998C69.4504 69.2725 69.6326 69.7271 69.8149 69.9089C73.9163 72.6361 74.4631 75.7271 71.6378 79.818C73.9163 83.3634 73.9163 84.6361 71.5466 88.5452C72.7315 89.9089 73.4606 91.4543 73.2783 93.3634C72.9137 96.5452 70.5441 98.7271 67.3541 98.818C66.3516 98.818 65.349 98.818 64.3464 98.818C63.7085 98.818 63.435 98.9998 63.2527 99.5452C61.8856 104.182 58.24 106.909 53.774 106.909C49.3081 106.909 45.6625 104.091 44.2953 99.5452C44.1131 98.9089 43.8396 98.7271 43.2016 98.7271C41.9257 98.7271 40.6497 98.818 39.4648 98.6361C34.9078 98.0907 32.7204 92.818 35.4546 89.0907C35.6369 88.818 35.8192 88.1816 35.728 87.9089C33.7229 84.9998 33.7229 82.7271 36.0015 79.818ZM65.349 69.4543C65.6224 67.7271 65.8047 66.0907 66.1693 64.4543C67.4453 59.0907 70.3618 54.6361 74.0986 50.6361C78.4734 45.9998 80.9342 40.5452 81.481 34.1816C83.3039 15.818 67.263 0.817961 48.9435 3.72705C31.5355 6.45432 20.7809 24.9089 26.9785 41.3634C28.5279 45.5452 31.0798 48.9998 34.0875 52.1816C37.7332 56.0907 40.194 60.5452 41.1965 65.818C41.47 66.9998 41.5611 68.1816 41.7434 69.4543C49.6727 69.4543 57.5108 69.4543 65.349 69.4543ZM53.5918 77.9998C57.9665 77.9998 62.4325 77.9998 66.8073 77.9998C67.7187 77.9998 68.5389 77.818 69.0858 76.9998C69.7238 76.0907 69.9061 75.1816 69.4504 74.1816C68.9035 73.0907 67.901 72.7271 66.7161 72.7271C57.9665 72.7271 49.3081 72.7271 40.5585 72.7271C38.6446 72.7271 37.4597 73.818 37.5509 75.4543C37.5509 77.0907 38.6446 77.9998 40.5585 77.9998C44.8422 77.9998 49.217 77.9998 53.5918 77.9998ZM53.5918 81.3634C49.217 81.3634 44.751 81.3634 40.3763 81.3634C38.6446 81.3634 37.4597 82.5452 37.4597 84.0907C37.4597 85.6361 38.5534 86.7271 40.2851 86.7271C49.1258 86.7271 57.8754 86.7271 66.7161 86.7271C67.3541 86.7271 67.9921 86.4543 68.5389 86.0907C69.4504 85.4543 69.7238 84.2725 69.3592 83.1816C68.9947 82.0907 68.0832 81.3634 66.7161 81.3634C62.3413 81.3634 57.9665 81.3634 53.5918 81.3634ZM53.5006 89.9998C50.9487 89.9998 48.4878 89.9998 45.9359 89.9998C43.8396 89.9998 41.8345 89.9998 39.7383 89.9998C38.4623 89.9998 37.642 90.9089 37.4597 91.9998C37.2774 93.2725 37.9154 94.4543 39.0091 94.9089C39.3737 95.0907 39.8294 95.0907 40.2851 95.0907C49.1258 95.0907 57.9665 95.0907 66.8073 95.0907C66.9895 95.0907 67.263 95.0907 67.4453 95.0907C68.6301 94.9089 69.5415 93.9089 69.6326 92.818C69.7238 91.6361 68.9947 90.4543 67.901 90.1816C67.4453 89.9998 66.8984 89.9998 66.3516 89.9998C62.0679 89.9998 57.7843 89.9998 53.5006 89.9998ZM47.3941 98.5452C47.7587 101.363 50.6752 103.454 53.6829 103.363C56.5994 103.272 59.2425 101 59.4248 98.5452C55.5057 98.5452 51.4955 98.5452 47.3941 98.5452ZM96.9751 17.9998C96.9751 19.818 98.5245 21.3634 100.347 21.3634C102.079 21.3634 103.537 19.9089 103.628 18.0907C103.628 16.2725 102.079 14.6361 100.256 14.7271C98.4333 14.6361 96.9751 16.1816 96.9751 17.9998ZM6.74508 60.4543C8.56791 60.4543 10.0262 58.9998 10.0262 57.1816C10.0262 55.4543 8.29448 53.818 6.5628 53.818C4.83111 53.818 3.37285 55.3634 3.37285 57.0907C3.28171 58.9998 4.83111 60.4543 6.74508 60.4543Z" fill="black"/>
<path d="M46.3001 47.0909C44.933 48 43.657 48.8182 42.381 49.6364C41.1962 50.3636 40.5582 50.3636 39.5556 49.3636C38.0062 47.8182 36.4568 46.2727 34.8163 44.6364C33.6314 43.4545 33.6314 42.9091 34.4517 41.5455C35.3631 40.2727 36.1834 38.9091 37.1859 37.5455C35.6365 37.1818 34.1783 36.7273 32.8112 36.4545C31.7175 36.1818 31.1706 35.5455 31.2618 34.4545C31.2618 32.0909 31.2618 29.6364 31.2618 27.2727C31.2618 25.9091 31.6263 25.4545 32.9934 25.1818C34.5428 24.8182 36.1834 24.4545 37.9151 24.0909C37.0948 22.8182 36.2745 21.7273 35.5454 20.6364C34.4517 19 34.4517 18.5455 35.91 17.0909C37.3682 15.6364 38.8265 14.1818 40.2848 12.7273C41.4696 11.6364 42.0164 11.5454 43.3836 12.3636C44.6595 13.1818 45.9355 14.0909 47.3938 15C47.7583 13.4545 48.0318 12.0909 48.3052 10.6364C48.5786 9.18181 49.0343 8.81818 50.4926 8.81818C52.8623 8.81818 55.3231 8.81818 57.6928 8.81818C59.151 8.81818 59.5156 9.18181 59.8801 10.6364C60.2447 12.1818 60.6093 13.8182 60.9738 15.4545C62.341 14.5455 63.6169 13.6364 64.8929 12.8182C65.9866 12.0909 66.7158 12.0909 67.6272 13.0909C69.2677 14.7273 70.9083 16.2727 72.4577 17.9091C73.4602 18.9091 73.5514 19.6364 72.7311 20.8182C71.8197 22.1818 70.9083 23.5455 69.9057 25.0909C71.5462 25.4545 73.0045 25.8182 74.5539 26.0909C75.6476 26.2727 76.1945 26.9091 76.1945 28.0909C76.1945 30.5455 76.1945 33 76.1945 35.3636C76.1945 36.7273 75.8299 37.1818 74.4628 37.3636C72.9134 37.6364 71.364 38 69.8146 38.2727C69.7234 38.2727 69.7234 38.3636 69.5411 38.4545C69.8146 38.8182 69.9968 39.2727 70.2703 39.7273C70.9083 40.7273 71.5462 41.6364 72.1842 42.5455C72.7311 43.3636 72.6399 44.0909 72.002 44.7273C70.2703 46.5455 68.4474 48.2727 66.6246 50.0909C65.8955 50.8182 64.9841 50.9091 64.0727 50.2727C62.7055 49.3636 61.3384 48.4545 59.6979 47.4545C59.3333 48.9091 59.0599 50.2727 58.7865 51.5455C58.3307 53.5455 58.1485 53.7273 56.1434 53.7273C53.8648 53.7273 51.6774 53.7273 49.3989 53.7273C48.0318 53.7273 47.6672 53.3636 47.3938 52.0909C47.1204 50.7273 46.8469 49.4545 46.5735 48.0909C46.5735 47.8182 46.4824 47.5455 46.3001 47.0909ZM55.5965 51C55.7788 50.0909 56.0522 49.3636 56.0522 48.5455C56.2345 46.6364 56.9636 45.3636 58.9687 44.9091C59.789 44.7273 60.427 44.6364 61.1561 45.1818C62.1587 45.8182 63.0701 46.5455 64.1638 47.0909C64.4372 47.2727 64.9841 47.1818 65.2575 47C66.1689 46.1818 67.0803 45.2727 67.9006 44.3636C68.0829 44.0909 68.174 43.5455 67.9917 43.2727C67.536 42.3636 66.898 41.5455 66.3512 40.6364C65.3486 39 66.4423 36.2727 68.3563 35.8182C69.5411 35.5455 70.726 35.3636 71.9108 35C72.1842 34.9091 72.5488 34.6364 72.6399 34.3636C72.7311 32.8182 72.6399 31.2727 72.6399 29.7273C71.364 29.4545 70.088 29.2727 68.9031 29C66.8069 28.6364 65.6221 26.0909 66.8069 24.1818C67.6272 22.9091 68.4474 21.6364 69.2677 20.3636C68.9943 20.0909 68.7209 19.8182 68.5386 19.5455C67.7183 18.7273 66.898 17.8182 65.9866 17.0909C65.8043 16.9091 65.2575 16.9091 65.0752 17C64.1638 17.5455 63.2524 18.1818 62.341 18.7273C60.5181 19.9091 58.0573 18.8182 57.6016 16.6364C57.3282 15.1818 57.0548 13.7273 56.6902 12.3636C54.9585 12.3636 53.318 12.3636 51.6774 12.3636C51.4951 13.0909 51.3129 13.8182 51.2217 14.4545C51.0394 15.1818 50.9483 15.8182 50.766 16.5455C50.3103 18.4545 47.9406 19.3636 46.3001 18.3636C44.933 17.5455 43.657 16.6364 42.4721 15.9091C41.1962 17.1818 40.0113 18.4545 38.7353 19.6364C39.3733 20.5455 40.0113 21.6364 40.7405 22.7273C41.9253 24.5455 40.8316 27 38.7353 27.4545C37.1859 27.7273 35.6365 28.0909 34.0871 28.3636C34.0871 30.0909 34.0871 31.8182 34.0871 33.4545C34.0871 33.7273 34.5428 34.1818 34.8163 34.2727C35.91 34.5455 37.0948 34.7273 38.1885 34.9091C40.0113 35.2727 41.105 37.8182 40.1025 39.3636C39.3733 40.4545 38.6442 41.4545 38.0062 42.6364C37.8239 42.9091 37.9151 43.4545 38.0974 43.6364C38.9176 44.6364 39.9202 45.5455 40.8316 46.3636C41.0139 46.5455 41.5607 46.6364 41.8342 46.4545C42.8367 45.9091 43.8393 45.1818 44.8418 44.6364C45.2975 44.3636 45.9355 44.4545 46.4824 44.4545C47.0292 44.5455 47.5761 44.7273 48.0318 45.0909C48.5786 45.4545 49.1255 46 49.3077 46.5455C49.6723 47.7273 49.8546 49 50.2192 50.1818C50.3103 50.4545 50.766 50.9091 51.0394 50.9091C52.5888 51 54.0471 51 55.5965 51Z" fill="black"/>
<path d="M64.8016 31.4545C64.8016 37.7272 59.7889 42.8182 53.5001 42.8182C47.3025 42.8182 42.1074 37.6363 42.1074 31.4545C42.1074 25.1818 47.2113 20.0909 53.409 20.0909C59.6977 20.1818 64.8016 25.2727 64.8016 31.4545ZM45.4797 31.2727C45.4797 35.7272 49.1253 39.3636 53.5001 39.2727C57.8749 39.2727 61.5205 35.6363 61.5205 31.2727C61.5205 26.8182 57.966 23.2727 53.5001 23.2727C49.1253 23.3636 45.4797 27 45.4797 31.2727Z" fill="black"/>
</g>
<defs>
<clipPath id="clip0">
<rect width="107" height="107" fill="white"/>
</clipPath>
</defs>
</svg>
