<svg width="100" height="102" viewBox="0 0 100 102" fill="none" xmlns="http://www.w3.org/2000/svg">
<g clip-path="url(#clip0)">
<path d="M14.9995 0C29.9995 0 45.0995 0 60.0995 0C66.1995 5.4 72.4995 10.6 78.3995 16.2C79.7995 17.5 80.8995 19.9 80.9995 21.8C81.2995 31.6 81.1995 41.3 81.0995 51.1C81.0995 53.5 81.7995 55 83.9995 56.1C87.9995 58.1 91.8995 60.4 95.8995 62.4C98.7995 63.8 99.8995 66.1 99.5995 69.2C98.5995 80.9 93.9995 90.9 84.7995 98.4C82.5995 100.2 79.0995 101.3 76.1995 101.4C53.8995 101.6 31.5995 101.5 9.19952 101.5C2.19952 101.5 -0.000477429 99.3 -0.000477429 92.2C-0.000477429 74.6 -0.000477429 57 -0.000477429 39.5C-0.000477429 32.5 -0.100477 25.5 -0.000477429 18.5C0.0995226 13.6 2.49952 11.3 7.29952 10.9C8.19952 10.8 9.09952 10.7 10.3995 10.5C9.59952 6 10.9995 2.4 14.9995 0ZM10.2995 15.3C4.69952 14.6 3.99952 15.2 3.99952 20.2C3.99952 44.1 3.99952 68 3.99952 91.9C3.99952 96.8 4.59952 97.4 9.39952 97.4C28.8995 97.4 48.4995 97.4 67.9995 97.4C68.9995 97.4 69.8995 97.2 70.8995 97.1C68.3995 91.7 64.4995 89.7 58.7995 90.4C54.8995 90.9 50.8995 90.7 46.8995 90.4C45.4995 90.3 42.8995 89.9 42.8995 88.4C42.8995 87 45.3995 86.6 46.6995 86.5C52.0995 86.3 57.4995 86.4 62.4995 86.4C61.0995 80.8 59.6995 75.5 58.5995 70.1C57.7995 66.3 59.2995 63.5 62.9995 61.8C66.6995 60.1 70.1995 57.9 73.8995 56.1C76.1995 55 77.0995 53.5 77.0995 50.9C76.8995 44 76.9995 37.2 76.9995 30.3C76.9995 27.3 76.9995 24.4 76.9995 21.1C72.7995 21.1 69.1995 21.2 65.6995 21.1C59.8995 21 56.8995 18.1 56.7995 12.3C56.6995 9.6 56.7995 6.8 56.7995 3.8C43.4995 4 30.5995 3.9 17.6995 4.2C16.5995 4.2 14.7995 6.3 14.4995 7.7C13.9995 10.5 14.3995 13.5 14.3995 16.4C14.3995 38.1 14.3995 59.7 14.3995 81.4C14.3995 86 14.9995 86.6 19.6995 86.6C22.0995 86.6 24.4995 86.4 26.7995 86.8C27.5995 86.9 29.1995 87.9 29.0995 88.9C28.9995 89.9 27.5995 90.4 26.7995 90.5C24.3995 90.7 22.0995 90.6 19.6995 90.6C12.5995 90.6 10.4995 88.4 10.4995 81.4C10.4995 60.7 10.4995 39.9 10.4995 19.2C10.2995 17.8 10.2995 16.5 10.2995 15.3ZM62.4995 68.5C63.7995 80 68.0995 88.9 76.2995 95.8C78.4995 97.6 80.1995 97.3 82.1995 95.6C90.1995 88.8 94.5995 80 95.4995 69.6C95.5995 68.4 94.5995 66.6 93.4995 65.9C89.4995 63.4 85.2995 61.2 80.9995 59.1C79.9995 58.6 78.3995 58.6 77.3995 59.1C73.0995 61.2 68.9995 63.4 64.8995 65.8C63.6995 66.5 62.9995 67.9 62.4995 68.5ZM73.1995 16.9C70.7995 14.8 68.8995 13.2 67.0995 11.6C65.2995 10 63.3995 8.5 61.2995 6.7C60.0995 17.1 61.4995 18.3 73.1995 16.9Z" fill="black"/>
<path d="M45.7994 45.9C52.3994 45.9 58.9994 45.8 65.5994 46C66.6994 46 68.8994 46.6 68.8994 47.9C68.8994 49.2 66.6994 49.8 65.5994 49.8C52.3994 49.9 39.1994 49.9 26.0994 49.8C24.9994 49.8 22.8994 49.1 22.8994 47.8C22.8994 46.5 25.0994 46 26.1994 45.9C32.5994 45.8 39.1994 45.9 45.7994 45.9Z" fill="black"/>
<path d="M45.6996 29.9C39.3996 29.9 33.0996 30 26.6996 29.8C25.3996 29.8 22.6996 29.3 22.7996 27.8C22.7996 26.4 25.2996 26.1 26.4996 26.1C39.3996 26 52.2996 26 65.1996 26.1C66.3996 26.1 68.7996 26.7 68.7996 28C68.7996 29.4 66.2996 29.8 64.9996 29.8C58.5996 30 52.0996 29.9 45.6996 29.9Z" fill="black"/>
<path d="M37.2995 15.9C40.8995 15.9 44.3995 15.8 47.9995 16C48.9995 16.1 50.8995 16.7 50.8995 17.9C50.8995 19.1 48.9995 19.8 47.9995 19.8C40.4995 20 32.9995 20 25.4995 19.8C24.5995 19.8 22.8995 19.2 22.8995 18.1C22.7995 17 24.5995 16.1 25.4995 16C29.3995 15.8 33.2995 15.9 37.2995 15.9Z" fill="black"/>
<path d="M36.7998 69.7C33.0998 69.7 29.3998 69.8 25.6998 69.6C24.6998 69.5 22.7998 69 22.7998 67.8C22.7998 66.7 24.5998 65.8 25.5998 65.8C33.0998 65.6 40.5998 65.6 48.0998 65.8C48.9998 65.8 50.8998 66.7 50.7998 67.8C50.6998 69 48.8998 69.5 47.7998 69.6C44.0998 69.9 40.3998 69.8 36.7998 69.7C36.7998 69.8 36.7998 69.7 36.7998 69.7Z" fill="black"/>
<path d="M46.9996 59.8C44.3996 59.8 41.6996 60 39.0996 59.7C38.1996 59.6 36.5996 58.9 36.5996 57.8C36.5996 56.7 38.1996 55.9 39.0996 55.9C44.1996 55.7 49.2996 55.7 54.3996 55.9C55.1996 55.9 56.7996 56.9 56.6996 58C56.6996 59 55.1996 59.6 54.3996 59.7C51.9996 59.9 49.4996 59.7 46.9996 59.8C46.9996 59.7 46.9996 59.8 46.9996 59.8Z" fill="black"/>
<path d="M31.7992 39.8C29.6992 39.8 27.5992 40 25.4992 39.7C24.4992 39.6 22.6992 38.9 22.6992 37.8C22.6992 36.7 24.2992 35.9 25.1992 35.9C29.5992 35.7 34.0992 35.7 38.5992 35.9C39.3992 35.9 41.0992 36.8 40.9992 37.9C40.9992 38.9 39.3992 39.6 38.4992 39.7C36.2992 39.9 34.0992 39.8 31.7992 39.8Z" fill="black"/>
<path d="M59.6998 39.7C57.5998 39.7 55.4998 39.9 53.3998 39.6C52.5998 39.5 51.2998 38.7 51.2998 37.8C51.2998 36.9 52.5998 35.9 53.2998 35.9C57.6998 35.7 62.1998 35.7 66.5998 35.9C67.2998 35.9 68.6998 36.8 68.6998 37.8C68.6998 38.8 67.0998 39.6 66.2998 39.7C64.1998 39.9 61.8998 39.8 59.6998 39.7Z" fill="black"/>
<path d="M26.5994 59.3C24.6994 59.2 22.5994 59.1 22.7994 57.8C22.9994 56.3 25.2994 56.6 26.5994 56.6C27.7994 56.6 30.2994 56.4 30.3994 57.8C30.4994 59.3 28.5994 59.4 26.5994 59.3Z" fill="black"/>
<path d="M77.0994 78.1C79.2994 75.8 81.1994 73.6 83.3994 71.7C84.0994 71.1 85.6994 70.3 86.4994 71C87.3994 71.8 86.7994 73.7 86.1994 74.4C84.0994 76.9 81.7994 79.3 79.2994 81.5C78.4994 82.2 76.4994 82.9 75.9994 82.4C74.1994 80.8 70.7994 79.3 71.1994 77C71.3994 76 73.0994 75.5 73.7994 75.7C74.7994 75.9 75.6994 77 77.0994 78.1Z" fill="black"/>
</g>
<defs>
<clipPath id="clip0">
<rect width="99.6" height="101.5" fill="white"/>
</clipPath>
</defs>
</svg>
