<svg width="16" height="31" viewBox="0 0 16 31" fill="none" xmlns="http://www.w3.org/2000/svg">
<path d="M14.7065 1.84253C13.9151 1.05943 12.7745 0.557414 11.5746 0.557414C10.8681 0.557414 10.2043 0.719011 9.5661 1.04257C8.92768 1.36592 8.40862 1.80838 8.00009 2.37014C7.59159 1.80838 7.07247 1.36592 6.43411 1.04254C5.79573 0.719011 5.13193 0.557388 4.42565 0.557388C3.22568 0.557388 2.08528 1.05943 1.29366 1.8425C0.502202 2.62544 0 3.76584 0 4.96599C0 5.79138 0.175375 6.59262 0.391455 7.19579C0.498751 7.49483 0.660896 7.81891 0.876585 8.149C1.09484 8.48289 1.29364 8.76177 1.46376 8.9829C1.63406 9.20426 1.87662 9.48092 2.20418 9.79995C2.5319 10.1193 2.7999 10.3702 2.99562 10.5489C3.19133 10.7278 3.48911 10.9917 3.88075 11.332C4.33158 11.7236 4.65313 12.0152 4.85956 12.2C5.06163 12.3811 5.35324 12.6595 5.73614 13.0256C6.51069 13.7658 7.07898 14.448 7.61698 15.2298C7.71737 15.3758 7.84684 15.4426 7.99988 15.4426C8.16166 15.4426 8.30164 15.3772 8.39986 15.2298C8.74431 14.7132 9.14246 14.1849 9.60837 13.6638C10.0786 13.138 10.4701 12.73 10.7829 12.4383C11.0999 12.1426 11.5557 11.7302 12.1447 11.2043C12.5089 10.879 12.7999 10.6341 12.9958 10.4554C13.1916 10.2766 13.4468 10.0298 13.7619 9.71501C14.0767 9.4 14.3256 9.12928 14.5023 8.90632C14.6831 8.67826 14.8741 8.40245 15.0895 8.07238C15.5294 7.39822 15.722 6.86444 15.8809 6.11494C15.96 5.74092 16 5.35744 16 4.96601C16.0002 3.76584 15.498 2.62544 14.7065 1.84253ZM14.9789 5.83402C14.8149 6.77835 14.3216 7.7045 13.498 8.61704C13.1386 9.01521 12.4788 9.64907 11.515 10.5064C11.0149 10.9513 10.613 11.3151 10.2979 11.6044C9.99164 11.8854 9.61491 12.266 9.16609 12.7447C8.72125 13.2192 8.33199 13.6894 8.00007 14.149C7.65109 13.698 7.24895 13.2404 6.79158 12.7702C6.32985 12.2958 5.97455 11.9362 5.71073 11.6979C5.44691 11.4597 5.04495 11.1043 4.4937 10.617L3.90653 10.0979L3.37037 9.61276C3.13815 9.40269 2.95949 9.23184 2.84273 9.10219C2.72981 8.97657 2.57893 8.81278 2.39174 8.60851C2.20455 8.40425 2.06057 8.22508 1.96614 8.08087C1.77116 7.78257 1.4396 7.33739 1.31941 6.96591L1.12367 6.36166C0.980979 5.92119 0.936481 5.46801 0.936481 4.96599C0.936481 4.01277 1.2769 3.19575 1.95777 2.5234C2.64717 1.84255 3.46422 1.5021 4.42578 1.5021C5.0981 1.5021 5.71941 1.68075 6.28972 2.04679C6.86 2.41263 7.29956 2.89506 7.58335 3.50202C7.6656 3.67813 7.80469 3.76584 8.00041 3.76584C8.19612 3.76584 8.34736 3.68414 8.43453 3.50202C8.72193 2.90087 9.13244 2.41263 9.70257 2.04679C10.2727 1.68075 10.9025 1.5021 11.5749 1.5021C12.5366 1.5021 13.3536 1.84253 14.0345 2.51487C14.7154 3.18722 15.0558 4.00425 15.0558 4.96599C15.0555 5.26374 15.0277 5.55279 14.9789 5.83402Z" fill="black"/>
<path d="M14.7065 17.2851C13.9151 16.502 12.7745 16 11.5746 16C10.8681 16 10.2043 16.1616 9.5661 16.4852C8.92768 16.8085 8.40862 17.251 8.00009 17.8128C7.59159 17.251 7.07247 16.8085 6.43411 16.4852C5.79573 16.1616 5.13193 16 4.42565 16C3.22568 16 2.08528 16.502 1.29366 17.2851C0.502202 18.068 0 19.2085 0 20.4086C0 21.234 0.175375 22.0352 0.391455 22.6384C0.498751 22.9374 0.660896 23.2615 0.876585 23.5916C1.09484 23.9255 1.29364 24.2044 1.46376 24.4255C1.63406 24.6469 1.87662 24.9235 2.20418 25.2426C2.5319 25.5619 2.7999 25.8128 2.99562 25.9915C3.19133 26.1704 3.48911 26.4343 3.88075 26.7746C4.33158 27.1662 4.65313 27.4578 4.85956 27.6426C5.06163 27.8237 5.35324 28.1022 5.73614 28.4682C6.51069 29.2084 7.07898 29.8906 7.61698 30.6724C7.71737 30.8184 7.84684 30.8852 7.99988 30.8852C8.16166 30.8852 8.30164 30.8198 8.39986 30.6724C8.74431 30.1558 9.14246 29.6275 9.60837 29.1064C10.0786 28.5806 10.4701 28.1726 10.7829 27.8809C11.0999 27.5853 11.5557 27.1728 12.1447 26.6469C12.5089 26.3216 12.7999 26.0767 12.9958 25.898C13.1915 25.7192 13.4468 25.4724 13.7619 25.1576C14.0767 24.8426 14.3256 24.5719 14.5023 24.3489C14.6831 24.1209 14.8741 23.8451 15.0895 23.515C15.5294 22.8408 15.722 22.3071 15.8809 21.5576C15.96 21.1835 16 20.8001 16 20.4086C16.0002 19.2085 15.498 18.068 14.7065 17.2851ZM14.9789 21.2766C14.8149 22.221 14.3216 23.1471 13.498 24.0596C13.1386 24.4578 12.4788 25.0917 11.515 25.949C11.0149 26.3939 10.613 26.7577 10.2979 27.047C9.99164 27.328 9.61491 27.7086 9.16609 28.1874C8.72125 28.6618 8.33199 29.132 8.00007 29.5916C7.65109 29.1406 7.24895 28.683 6.79158 28.2128C6.32985 27.7384 5.97455 27.3788 5.71073 27.1405C5.44691 26.9023 5.04495 26.5469 4.4937 26.0596L3.90653 25.5405L3.37037 25.0554C3.13815 24.8453 2.95949 24.6745 2.84273 24.5448C2.72981 24.4192 2.57893 24.2554 2.39174 24.0511C2.20455 23.8469 2.06057 23.6677 1.96614 23.5235C1.77116 23.2252 1.4396 22.78 1.31941 22.4085L1.12367 21.8043C0.980979 21.3638 0.936481 20.9106 0.936481 20.4086C0.936481 19.4554 1.2769 18.6384 1.95777 17.966C2.64717 17.2852 3.46422 16.9447 4.42578 16.9447C5.0981 16.9447 5.71941 17.1234 6.28972 17.4894C6.86 17.8552 7.29956 18.3377 7.58335 18.9446C7.6656 19.1207 7.80469 19.2085 8.00041 19.2085C8.19612 19.2085 8.34736 19.1268 8.43453 18.9446C8.72193 18.3435 9.13244 17.8552 9.70257 17.4894C10.2727 17.1234 10.9025 16.9447 11.5749 16.9447C12.5366 16.9447 13.3536 17.2851 14.0345 17.9575C14.7154 18.6298 15.0558 19.4469 15.0558 20.4086C15.0555 20.7064 15.0277 20.9954 14.9789 21.2766Z" fill="black"/>
<path d="M3.99962 16.4426C5.59962 16.4426 7.33296 18.1093 7.99962 18.9426C8.39932 17.7426 10.1664 16.776 11 16.4426C12.2 16.4426 13.5 17.1093 14 17.4426C15 17.9426 15.5 20.4426 15.5 21.4426C15.5 22.2426 14.1667 24.1093 13.5 24.9426L11 27.4426L8 29.9426L7.5 29.4426C6.66654 28.776 4.69962 27.1426 3.49962 25.9426C0.699622 23.9426 0.332956 20.776 0.499622 19.4426C0.999622 18.4426 2.39962 16.4426 3.99962 16.4426Z" fill="black" stroke="black" stroke-width="0.25"/>
</svg>
