<svg width="18" height="19" viewBox="0 0 18 19" fill="none" xmlns="http://www.w3.org/2000/svg">
<path d="M16.3794 0.646484H1.52041C0.809213 0.646484 0.232422 1.20952 0.232422 1.90343V16.9363C0.232422 17.6299 0.809213 18.1929 1.52041 18.1929H16.3794C17.0916 18.1929 17.6684 17.6295 17.6684 16.9363V1.90343C17.6684 1.20916 17.0913 0.646484 16.3794 0.646484ZM5.51738 15.3351H2.8839V7.41205H5.51738V15.3351ZM4.20081 6.32973H4.18317C3.29982 6.32973 2.72832 5.72118 2.72832 4.96095C2.72832 4.18378 3.31746 3.59217 4.2181 3.59217C5.11909 3.59217 5.6733 4.18378 5.69094 4.96095C5.69094 5.72118 5.11874 6.32973 4.20081 6.32973ZM15.0138 15.3351H12.3803V11.0954C12.3803 10.0307 11.9993 9.30399 11.0465 9.30399C10.319 9.30399 9.88582 9.794 9.69496 10.2674C9.62547 10.4364 9.60853 10.6728 9.60853 10.9098V15.3347H6.97505C6.97505 15.3347 7.00962 8.15429 6.97505 7.41169H9.60853V8.53317C9.95849 7.99342 10.5843 7.22472 11.9824 7.22472C13.7149 7.22472 15.0141 8.35749 15.0141 10.7913L15.0138 15.3351Z" fill="#0092C4"/>
</svg>
