<?xml version="1.0" encoding="utf-8"?>
<!-- Generator: Adobe Illustrator 23.0.1, SVG Export Plug-In . SVG Version: 6.00 Build 0)  -->
<svg version="1.1" id="Layer_1" xmlns="http://www.w3.org/2000/svg" xmlns:xlink="http://www.w3.org/1999/xlink" x="0px" y="0px"
	 viewBox="0 0 76 80" style="enable-background:new 0 0 76 80;" xml:space="preserve">
<style type="text/css">
	.st0{fill:url(#SVGID_1_);}
	.st1{fill:none;stroke:#C8C8C8;stroke-width:0.5;}
	.st2{fill:url(#SVGID_2_);}
	.st3{fill:none;stroke:#C8C8C8;stroke-width:3;}
	.st4{fill:#EE2924;}
	.st5{fill:#1B171B;}
	.st6{fill:url(#SVGID_3_);}
	.st7{fill:url(#SVGID_4_);}
	.st8{fill:#FFF9FA;}
</style>
<image style="overflow:visible;opacity:0.75;enable-background:new    ;" width="490" height="641" xlink:href="ABD6AF15.png"  transform="matrix(0.1233 0 0 0.1233 15.5909 0.863)">
</image>
<linearGradient id="SVGID_1_" gradientUnits="userSpaceOnUse" x1="-1988.0212" y1="-506.5046" x2="-1982.6058" y2="-496.6922" gradientTransform="matrix(3.8575 0 0 -3.8575 7702.7422 -1892.949)">
	<stop  offset="0" style="stop-color:#FFFFFF"/>
	<stop  offset="1" style="stop-color:#E1E2E1"/>
</linearGradient>
<path class="st0" d="M17.5,2h34.3c7.6,5.4,16.3,13.5,22.3,22.3v52.8H17.5V2L17.5,2z"/>
<path class="st1" d="M17.5,2h34.3c7.6,5.4,16.3,13.5,22.3,22.3v52.8H17.5V2L17.5,2z"/>
<image style="overflow:visible;opacity:0.75;enable-background:new    ;" width="213" height="212" xlink:href="ABD6AF17.png"  transform="matrix(0.1227 0 0 0.1233 49.8636 0)">
</image>
<linearGradient id="SVGID_2_" gradientUnits="userSpaceOnUse" x1="-1980.2052" y1="-496.165" x2="-1979.3704" y2="-495.3956" gradientTransform="matrix(3.8575 0 0 -3.8575 7698.9814 -1898.4729)">
	<stop  offset="0" style="stop-color:#FFFFFF"/>
	<stop  offset="1" style="stop-color:#C8C8C8"/>
</linearGradient>
<path class="st2" d="M51.8,2C60.1,8,68,15.4,74.1,24.3c-3.9-4.1-9.4-6.3-15.8-6C59,10.7,56.1,5.8,51.8,2L51.8,2z"/>
<path class="st1" d="M51.8,2C60.1,8,68,15.4,74.1,24.3c-3.9-4.1-9.4-6.3-15.8-6C59,10.7,56.1,5.8,51.8,2L51.8,2z"/>
<path class="st3" d="M1.8,7.2h51.1v17.2H1.8V7.2z"/>
<g>
	<path class="st4" d="M37.5,51.3c1.4-2.7,2.9-5.7,4.2-8.8l0.5-1.2c-1.6-6.2-2.6-11.2-1.7-14.5c0.2-0.8,1.2-1.4,2.3-1.4l0.6,0h0.1
		c1.4,0,2.1,1.8,2.2,2.5c0.1,1.2-0.4,3.2-0.4,3.2c0-0.8,0-2.1-0.5-3.2c-0.6-1.3-1.2-2.1-1.7-2.2c-0.3,0.2-0.5,0.5-0.6,1.2
		c-0.2,1-0.2,2.2-0.2,2.8c0,2.2,0.4,5.1,1.3,8.1c0.2-0.5,0.3-0.9,0.4-1.3c0.2-0.7,1.3-5,1.3-5s-0.3,5.8-0.7,7.5
		c-0.1,0.4-0.2,0.7-0.3,1.1c1.4,3.9,3.7,7.4,6.3,9.9c1.1,1,2.4,1.8,3.7,2.5c2.8-0.4,5.3-0.6,7.4-0.6c2.8,0,4.9,0.5,5.7,1.3
		c0.4,0.4,0.6,0.9,0.6,1.4c0,0.2-0.1,0.7-0.1,0.8c0-0.2,0-0.9-2.2-1.6c-1.8-0.6-5.1-0.6-9.1-0.1c4.6,2.3,9.2,3.4,10.6,2.7
		c0.3-0.2,0.8-0.8,0.8-0.8s-0.3,1.1-0.4,1.4c-0.2,0.3-0.7,0.6-1.1,0.8c-2.3,0.6-8.1-0.8-13.3-3.7c-5.7,0.8-12,2.4-17.1,4.1
		c-5,8.7-8.7,12.7-11.7,11.2l-1.1-0.6c-0.5-0.3-0.5-0.9-0.4-1.4c0.4-1.7,2.5-4.3,6.9-6.9c0.5-0.3,2.6-1.4,2.6-1.4s-1.5,1.5-1.9,1.8
		c-3.5,2.8-6,6.4-6,7.8l0,0.1C27.3,68.5,31.8,62.5,37.5,51.3 M39.3,52.3c-1,1.8-1.9,3.5-2.7,5c4.7-2,9.9-3.3,14.7-4.2
		c-0.7-0.5-1.3-0.9-1.9-1.4c-2.7-2.3-4.7-5.1-6.2-8.1C42.2,46.1,41.1,48.8,39.3,52.3"/>
</g>
<path class="st4" d="M69.1,59.2h0.2c0.2,0,0.4-0.1,0.4-0.2c0-0.1-0.1-0.2-0.3-0.2c-0.1,0-0.2,0-0.2,0V59.2L69.1,59.2z M69.1,60h-0.3
	v-1.5c0.2,0,0.3,0,0.5,0c0.2,0,0.4,0,0.5,0.1c0.1,0.1,0.1,0.2,0.1,0.3c0,0.2-0.1,0.3-0.3,0.3v0c0.1,0.1,0.2,0.2,0.2,0.4
	c0,0.2,0.1,0.3,0.1,0.4h-0.3c0-0.1-0.1-0.2-0.1-0.4c0-0.2-0.1-0.2-0.3-0.2h-0.2V60L69.1,60z M69.4,60.6c-0.8,0-1.4-0.6-1.4-1.4
	c0-0.8,0.6-1.4,1.4-1.4c0.8,0,1.4,0.6,1.4,1.4C70.8,60,70.2,60.6,69.4,60.6z M70.5,59.2c0-0.6-0.5-1.1-1.1-1.1
	c-0.6,0-1.1,0.5-1.1,1.1c0,0.6,0.5,1.1,1.1,1.1C70,60.3,70.5,59.8,70.5,59.2z"/>
<g>
	<path class="st5" d="M43.9,70l-0.4-2.5c-0.1-0.7-0.2-1.8-0.4-2.6h0c-0.1,0.8-0.3,1.9-0.4,2.6L42.3,70H43.9z M42.1,71.6l-0.5,2.7
		h-1.8L42,63h2.2l2.1,11.3h-1.8L44,71.6L42.1,71.6L42.1,71.6z M50.5,69.2c0-0.2,0-0.3,0-0.5c-0.1-0.6-0.3-1.1-0.8-1.1
		c-0.8,0-1,1.2-1,2.6c0,1.6,0.4,2.5,1,2.5c0.3,0,0.6-0.2,0.8-0.8c0-0.1,0.1-0.3,0.1-0.5L50.5,69.2L50.5,69.2z M52.4,62.7v9.3
		c0,0.7,0,1.6,0.1,2.3h-1.6l-0.1-0.9h0c-0.3,0.6-0.9,1.1-1.6,1.1c-1.6,0-2.3-1.9-2.3-4.2c0-2.9,1.1-4.3,2.4-4.3
		c0.7,0,1.1,0.3,1.3,0.9h0v-4.1L52.4,62.7L52.4,62.7z M56.3,72.9c0.7,0,0.9-1.5,0.9-2.7c0-1.2-0.2-2.7-0.9-2.7c-0.8,0-1,1.5-1,2.7
		C55.3,71.6,55.5,72.9,56.3,72.9L56.3,72.9z M56.3,74.4c-1.7,0-2.8-1.5-2.8-4.2c0-2.9,1.4-4.3,2.9-4.3c1.7,0,2.8,1.6,2.8,4.2
		C59.1,73.5,57.4,74.4,56.3,74.4L56.3,74.4z M62,71.4c0,0.2,0,0.4,0.1,0.5c0.2,0.7,0.5,0.9,0.8,0.9c0.7,0,1-1,1-2.6
		c0-1.5-0.3-2.5-1-2.5c-0.4,0-0.7,0.4-0.8,0.9c0,0.1-0.1,0.4-0.1,0.5L62,71.4L62,71.4z M60.1,62.7H62v4.3h0c0.4-0.6,0.9-1,1.6-1
		c1.4,0,2.1,1.8,2.1,4c0,2.9-1.1,4.4-2.4,4.4c-0.7,0-1.1-0.3-1.5-1.1h0l-0.1,1h-1.6c0-0.7,0.1-1.6,0.1-2.3L60.1,62.7L60.1,62.7
		L60.1,62.7z M70.2,69.4c0-1.2-0.3-2-0.9-2c-0.7,0-1,1.1-1,2H70.2z M68.3,70.9c0,1.5,0.7,2,1.6,2c0.6,0,1-0.1,1.4-0.3l0.3,1.5
		c-0.5,0.2-1.3,0.4-2,0.4c-2,0-3.1-1.5-3.1-4.1c0-2.7,1.3-4.4,2.9-4.4c1.6,0,2.5,1.5,2.5,3.8c0,0.5,0,0.8-0.1,1.1L68.3,70.9
		L68.3,70.9z"/>
</g>
<g>
	
		<image style="overflow:visible;opacity:0.3;enable-background:new    ;" width="445" height="171" xlink:href="ABD6AF12.png"  transform="matrix(0.123 0 0 0.1226 0 5.7373)">
	</image>
	
		<linearGradient id="SVGID_3_" gradientUnits="userSpaceOnUse" x1="-2598.0547" y1="-639.5045" x2="-2600.6272" y2="-647.422" gradientTransform="matrix(3.8575 0 0 3.8575 10054.2256 2498.0396)">
		<stop  offset="0.127" style="stop-color:#89171A"/>
		<stop  offset="0.244" style="stop-color:#90191C;stop-opacity:0.999"/>
		<stop  offset="0.398" style="stop-color:#9F1C20;stop-opacity:0.999"/>
		<stop  offset="0.573" style="stop-color:#BB2025;stop-opacity:0.998"/>
		<stop  offset="0.761" style="stop-color:#E01E26;stop-opacity:0.997"/>
		<stop  offset="0.867" style="stop-color:#ED1C24;stop-opacity:0.996"/>
	</linearGradient>
	<path class="st6" d="M1.8,7.3h51.1v17.2H1.8V7.3z"/>
	
		<linearGradient id="SVGID_4_" gradientUnits="userSpaceOnUse" x1="-2597.946" y1="-639.1906" x2="-2600.7224" y2="-647.7359" gradientTransform="matrix(3.8575 0 0 3.8575 10054.2256 2498.0396)">
		<stop  offset="0.315" style="stop-color:#5C0C0D"/>
		<stop  offset="0.444" style="stop-color:#821518;stop-opacity:0.999"/>
		<stop  offset="0.618" style="stop-color:#AD1E23;stop-opacity:0.998"/>
		<stop  offset="0.775" style="stop-color:#CD2027;stop-opacity:0.997"/>
		<stop  offset="0.908" style="stop-color:#DF1F26;stop-opacity:0.996"/>
		<stop  offset="1" style="stop-color:#E51E25;stop-opacity:0.996"/>
	</linearGradient>
	<path class="st7" d="M53.8,25.5h-53V6.3h53V25.5z M51.9,8.2H2.7v15.4h49.2V8.2z"/>
	<path class="st8" d="M15.1,9.8h3.7c1.1,0,2,0.3,2.5,1c0.6,0.6,0.9,1.6,0.9,2.8c0,1.2-0.3,2.1-0.9,2.8c-0.6,0.6-1.4,1-2.5,1h-1.5v4
		h-2.2V9.8 M17.3,12v3.2h1.2c0.4,0,0.8-0.1,1-0.4c0.2-0.3,0.4-0.7,0.4-1.2c0-0.5-0.1-0.9-0.4-1.2c-0.2-0.3-0.6-0.4-1-0.4L17.3,12
		 M26.1,12.1v7h0.8c0.9,0,1.6-0.3,2.1-0.9c0.5-0.6,0.7-1.5,0.7-2.6c0-1.1-0.2-2-0.7-2.6c-0.5-0.6-1.2-0.9-2.1-0.9H26.1 M23.8,9.8
		h2.4c1.3,0,2.3,0.1,2.9,0.4c0.6,0.2,1.2,0.7,1.7,1.3c0.4,0.5,0.7,1.1,0.9,1.8c0.2,0.7,0.3,1.4,0.3,2.3c0,0.9-0.1,1.6-0.3,2.3
		c-0.2,0.7-0.5,1.3-0.9,1.8c-0.5,0.6-1,1-1.7,1.3c-0.7,0.2-1.6,0.4-2.9,0.4h-2.4V9.8 M33.7,9.8h6v2.2H36v2.1h3.6v2.2H36v4.9h-2.2
		V9.8"/>
</g>
</svg>
