<svg width="21" height="21" viewBox="0 0 21 21" fill="none" xmlns="http://www.w3.org/2000/svg">
<path d="M20.6062 18.7688L16.5309 14.6934C17.6833 13.1565 18.375 11.256 18.375 9.1875C18.375 4.11338 14.2616 0 9.1875 0C4.11338 0 0 4.11338 0 9.1875C0 14.2616 4.11338 18.375 9.1875 18.375C11.256 18.375 13.1565 17.6833 14.6921 16.5309L18.7688 20.6062C19.0103 20.8477 19.2675 21 19.6875 21C20.4133 21 21 20.4133 21 19.6875C21 19.4001 20.9291 19.0916 20.6062 18.7688ZM2.625 9.1875C2.625 5.56238 5.56238 2.625 9.1875 2.625C12.8126 2.625 15.75 5.56238 15.75 9.1875C15.75 12.8126 12.8126 15.75 9.1875 15.75C5.56238 15.75 2.625 12.8126 2.625 9.1875Z" fill="#2B241E"/>
</svg>
