<?xml version="1.0" encoding="utf-8"?>
<!-- Generator: Adobe Illustrator 23.0.1, SVG Export Plug-In . SVG Version: 6.00 Build 0)  -->
<svg version="1.1" id="Layer_1" xmlns="http://www.w3.org/2000/svg" xmlns:xlink="http://www.w3.org/1999/xlink" x="0px" y="0px"
	 viewBox="0 0 23.9 20" style="enable-background:new 0 0 23.9 20;" xml:space="preserve">
<style type="text/css">
	.st0{fill:#00ACED;}
</style>
<path class="st0" d="M0,17.7c2.7,0.2,5.1-0.4,7.2-2.1c-2.2-0.2-3.7-1.3-4.6-3.5c0.8,0.1,1.5,0.1,2.2-0.1c-1.2-0.3-2.1-0.9-2.8-1.8
	C1.3,9.3,0.9,8.3,0.9,7c0.7,0.4,1.4,0.6,2.2,0.6C2,6.9,1.4,5.9,1.1,4.6C0.8,3.3,1,2.1,1.6,0.9c2.7,3.2,6,5,10.1,5.3
	c0-0.3-0.1-0.6-0.1-0.9c-0.2-3.2,2.7-5.8,5.7-5.2c1,0.2,1.9,0.6,2.6,1.4c0.1,0.1,0.2,0.1,0.4,0.1c0.9-0.2,1.8-0.6,2.6-1
	c0.1,0,0.1-0.1,0.2-0.1c-0.2,0.6-0.4,1.1-0.8,1.5c-0.4,0.4-0.8,0.8-1.2,1.2c0.4-0.1,0.9-0.2,1.3-0.3c0.4-0.1,0.9-0.3,1.3-0.5
	c-0.2,0.3-0.4,0.5-0.6,0.8c-0.6,0.6-1.1,1.1-1.7,1.7c-0.1,0.1-0.2,0.2-0.2,0.4c0,4.3-1.5,8-4.5,11c-1.9,1.9-4.2,3-6.8,3.5
	c-2.6,0.5-5.1,0.3-7.5-0.6c-0.9-0.3-1.7-0.8-2.5-1.3C0.1,17.8,0.1,17.8,0,17.7z"/>
</svg>
